<?xml version="1.0" encoding="UTF-8" standalone="no"?>
<!DOCTYPE svg PUBLIC "-//W3C//DTD SVG 1.1//EN"
 "http://www.w3.org/Graphics/SVG/1.1/DTD/svg11.dtd">
<!-- Generated by graphviz version 2.43.0 (0)
 -->
<!-- Title: CircularLinkedList::end Pages: 1 -->
<svg width="413pt" height="326pt"
 viewBox="0.00 0.00 413.00 326.00" xmlns="http://www.w3.org/2000/svg" xmlns:xlink="http://www.w3.org/1999/xlink">

<svg id="main" version="1.1" xmlns="http://www.w3.org/2000/svg" xmlns:xlink="http://www.w3.org/1999/xlink" xml:space="preserve" onload="init(evt)">
<style type="text/css"><![CDATA[
.node, .edge {opacity: 0.7;}
.node.selected, .edge.selected {opacity: 1;}
.edge:hover path { stroke: red; }
.edge:hover polygon { stroke: red; fill: red; }
]]></style>
<script type="application/ecmascript" xlink:href="svg.min.js"/>
<svg id="graph" class="graph">
<g id="graph0" class="graph" transform="scale(1 1) rotate(0) translate(4 322)">
<title>CircularLinkedList::end</title>
<!-- Node1 -->
<g id="Node000001" class="node">
<title>Node1</title>
<g id="a_Node000001"><a xlink:title="Iterator to end of list.">
<polygon fill="#999999" stroke="#666666" points="405,-168.5 278,-168.5 278,-149.5 405,-149.5 405,-168.5"/>
<text text-anchor="middle" x="341.5" y="-156.5" font-family="Helvetica,sans-Serif" font-size="10.00">CircularLinkedList::end</text>
</a>
</g>
</g>
<!-- Node2 -->
<g id="Node000002" class="node">
<title>Node2</title>
<g id="a_Node000002"><a xlink:href="classCircularLinkedList.html#a71e0be64b13918ab239c6f833c9849b8" target="_top" xlink:title="Const iterator to end of list.">
<polygon fill="white" stroke="#666666" points="242,-318 139,-318 139,-288 242,-288 242,-318"/>
<text text-anchor="start" x="147" y="-306" font-family="Helvetica,sans-Serif" font-size="10.00">CircularLinkedList</text>
<text text-anchor="middle" x="190.5" y="-295" font-family="Helvetica,sans-Serif" font-size="10.00">::cend</text>
</a>
</g>
</g>
<!-- Node1&#45;&gt;Node2 -->
<g id="edge1_Node000001_Node000002" class="edge">
<title>Node1&#45;&gt;Node2</title>
<g id="a_edge1_Node000001_Node000002"><a xlink:title=" ">
<path fill="none" stroke="#63b8ff" d="M329.23,-177.3C312.74,-202.86 279.84,-249.41 242,-279 237.79,-282.29 233.06,-285.27 228.23,-287.93"/>
<polygon fill="#63b8ff" stroke="#63b8ff" points="332.34,-178.94 334.72,-168.62 326.42,-175.2 332.34,-178.94"/>
</a>
</g>
</g>
<!-- Node3 -->
<g id="Node000003" class="node">
<title>Node3</title>
<g id="a_Node000003"><a xlink:href="classCircularLinkedList.html#a47f654d80ad90cb4c3992946c909d089" target="_top" xlink:title="Remove element at position.">
<polygon fill="white" stroke="#666666" points="242,-270 139,-270 139,-240 242,-240 242,-270"/>
<text text-anchor="start" x="147" y="-258" font-family="Helvetica,sans-Serif" font-size="10.00">CircularLinkedList</text>
<text text-anchor="middle" x="190.5" y="-247" font-family="Helvetica,sans-Serif" font-size="10.00">::erase</text>
</a>
</g>
</g>
<!-- Node1&#45;&gt;Node3 -->
<g id="edge2_Node000001_Node000003" class="edge">
<title>Node1&#45;&gt;Node3</title>
<g id="a_edge2_Node000001_Node000003"><a xlink:title=" ">
<path fill="none" stroke="#63b8ff" d="M320.82,-175.09C301.47,-190.51 270.72,-213.89 242,-231 236.75,-234.13 231.02,-237.17 225.37,-239.98"/>
<polygon fill="#63b8ff" stroke="#63b8ff" points="323.27,-177.62 328.87,-168.62 318.88,-172.16 323.27,-177.62"/>
</a>
</g>
</g>
<!-- Node4 -->
<g id="Node000004" class="node">
<title>Node4</title>
<g id="a_Node000004"><a xlink:href="classCircularLinkedList.html#a15fa043a107f6d4b74efcc4eaf62d778" target="_top" xlink:title="Insert element before position.">
<polygon fill="white" stroke="#666666" points="242,-222 139,-222 139,-192 242,-192 242,-222"/>
<text text-anchor="start" x="147" y="-210" font-family="Helvetica,sans-Serif" font-size="10.00">CircularLinkedList</text>
<text text-anchor="middle" x="190.5" y="-199" font-family="Helvetica,sans-Serif" font-size="10.00">::insert</text>
</a>
</g>
</g>
<!-- Node1&#45;&gt;Node4 -->
<g id="edge3_Node000001_Node000004" class="edge">
<title>Node1&#45;&gt;Node4</title>
<g id="a_edge3_Node000001_Node000004"><a xlink:title=" ">
<path fill="none" stroke="#63b8ff" d="M301.03,-171.71C281.75,-177.92 258.42,-185.44 238.26,-191.94"/>
<polygon fill="#63b8ff" stroke="#63b8ff" points="302.26,-175 310.71,-168.6 300.11,-168.33 302.26,-175"/>
</a>
</g>
</g>
<!-- Node5 -->
<g id="Node000005" class="node">
<title>Node5</title>
<g id="a_Node000005"><a xlink:href="classCircularLinkedList.html#ab0d026bc229f51244d31a0786c09a6e1" target="_top" xlink:title="Less than operator.">
<polygon fill="white" stroke="#666666" points="242,-174 139,-174 139,-144 242,-144 242,-174"/>
<text text-anchor="start" x="147" y="-162" font-family="Helvetica,sans-Serif" font-size="10.00">CircularLinkedList</text>
<text text-anchor="middle" x="190.5" y="-151" font-family="Helvetica,sans-Serif" font-size="10.00">::operator&lt;</text>
</a>
</g>
</g>
<!-- Node1&#45;&gt;Node5 -->
<g id="edge4_Node000001_Node000005" class="edge">
<title>Node1&#45;&gt;Node5</title>
<g id="a_edge4_Node000001_Node000005"><a xlink:title=" ">
<path fill="none" stroke="#63b8ff" d="M267.46,-159C259,-159 250.52,-159 242.44,-159"/>
<polygon fill="#63b8ff" stroke="#63b8ff" points="267.74,-162.5 277.74,-159 267.74,-155.5 267.74,-162.5"/>
</a>
</g>
</g>
<!-- Node6 -->
<g id="Node000006" class="node">
<title>Node6</title>
<g id="a_Node000006"><a xlink:href="classCircularLinkedList.html#a3dfbee6fc8c533dadcc5377c0da6fd8f" target="_top" xlink:title="Equality operator.">
<polygon fill="white" stroke="#666666" points="242,-126 139,-126 139,-96 242,-96 242,-126"/>
<text text-anchor="start" x="147" y="-114" font-family="Helvetica,sans-Serif" font-size="10.00">CircularLinkedList</text>
<text text-anchor="middle" x="190.5" y="-103" font-family="Helvetica,sans-Serif" font-size="10.00">::operator==</text>
</a>
</g>
</g>
<!-- Node1&#45;&gt;Node6 -->
<g id="edge5_Node000001_Node000006" class="edge">
<title>Node1&#45;&gt;Node6</title>
<g id="a_edge5_Node000001_Node000006"><a xlink:title=" ">
<path fill="none" stroke="#63b8ff" d="M301.03,-146.29C281.75,-140.08 258.42,-132.56 238.26,-126.06"/>
<polygon fill="#63b8ff" stroke="#63b8ff" points="300.11,-149.67 310.71,-149.4 302.26,-143 300.11,-149.67"/>
</a>
</g>
</g>
<!-- Node7 -->
<g id="Node000007" class="node">
<title>Node7</title>
<g id="a_Node000007"><a xlink:href="classCircularLinkedList.html#a0e9d9a048176c68fb0f9aa040421f7e0" target="_top" xlink:title="Reverse iterator to beginning of reversed list.">
<polygon fill="white" stroke="#666666" points="242,-78 139,-78 139,-48 242,-48 242,-78"/>
<text text-anchor="start" x="147" y="-66" font-family="Helvetica,sans-Serif" font-size="10.00">CircularLinkedList</text>
<text text-anchor="middle" x="190.5" y="-55" font-family="Helvetica,sans-Serif" font-size="10.00">::rbegin</text>
</a>
</g>
</g>
<!-- Node1&#45;&gt;Node7 -->
<g id="edge6_Node000001_Node000007" class="edge">
<title>Node1&#45;&gt;Node7</title>
<g id="a_edge6_Node000001_Node000007"><a xlink:title=" ">
<path fill="none" stroke="#63b8ff" d="M320.82,-142.91C301.47,-127.49 270.72,-104.11 242,-87 236.75,-83.87 231.02,-80.83 225.37,-78.02"/>
<polygon fill="#63b8ff" stroke="#63b8ff" points="318.88,-145.84 328.87,-149.38 323.27,-140.38 318.88,-145.84"/>
</a>
</g>
</g>
<!-- Node9 -->
<g id="Node000009" class="node">
<title>Node9</title>
<g id="a_Node000009"><a xlink:href="classCircularLinkedList.html#a1568c1cea4b78c739838e2bccbd669e9" target="_top" xlink:title="Const reverse iterator to beginning of reversed list.">
<polygon fill="white" stroke="#666666" points="242,-30 139,-30 139,0 242,0 242,-30"/>
<text text-anchor="start" x="147" y="-18" font-family="Helvetica,sans-Serif" font-size="10.00">CircularLinkedList</text>
<text text-anchor="middle" x="190.5" y="-7" font-family="Helvetica,sans-Serif" font-size="10.00">::rbegin</text>
</a>
</g>
</g>
<!-- Node1&#45;&gt;Node9 -->
<g id="edge8_Node000001_Node000009" class="edge">
<title>Node1&#45;&gt;Node9</title>
<g id="a_edge8_Node000001_Node000009"><a xlink:title=" ">
<path fill="none" stroke="#63b8ff" d="M329.23,-140.7C312.74,-115.14 279.84,-68.59 242,-39 237.79,-35.71 233.06,-32.73 228.23,-30.07"/>
<polygon fill="#63b8ff" stroke="#63b8ff" points="326.42,-142.8 334.72,-149.38 332.34,-139.06 326.42,-142.8"/>
</a>
</g>
</g>
<!-- Node8 -->
<g id="Node000008" class="node">
<title>Node8</title>
<g id="a_Node000008"><a xlink:href="classCircularLinkedList.html#a171c7dd2eafbac37382106282ee10ba0" target="_top" xlink:title="Const reverse iterator to beginning of reversed list.">
<polygon fill="white" stroke="#666666" points="103,-78 0,-78 0,-48 103,-48 103,-78"/>
<text text-anchor="start" x="8" y="-66" font-family="Helvetica,sans-Serif" font-size="10.00">CircularLinkedList</text>
<text text-anchor="middle" x="51.5" y="-55" font-family="Helvetica,sans-Serif" font-size="10.00">::crbegin</text>
</a>
</g>
</g>
<!-- Node7&#45;&gt;Node8 -->
<g id="edge7_Node000007_Node000008" class="edge">
<title>Node7&#45;&gt;Node8</title>
<g id="a_edge7_Node000007_Node000008"><a xlink:title=" ">
<path fill="none" stroke="#63b8ff" d="M128.68,-63C120.23,-63 111.62,-63 103.37,-63"/>
<polygon fill="#63b8ff" stroke="#63b8ff" points="128.88,-66.5 138.88,-63 128.88,-59.5 128.88,-66.5"/>
</a>
</g>
</g>
</g>
</svg>
</svg>

<style type='text/css'>
<![CDATA[
[data-mouse-over-selected='false'] { opacity: 0.7; }
[data-mouse-over-selected='true']  { opacity: 1.0; }
]]>
</style>
<script type="application/ecmascript"><![CDATA[
document.addEventListener('DOMContentLoaded', (event) => {
  highlightEdges();
  highlightAdjacentNodes();
});
]]></script>
</svg>
