<?xml version="1.0" encoding="UTF-8" standalone="no"?>
<!DOCTYPE svg PUBLIC "-//W3C//DTD SVG 1.1//EN"
 "http://www.w3.org/Graphics/SVG/1.1/DTD/svg11.dtd">
<!-- Generated by graphviz version 2.43.0 (0)
 -->
<!-- Title: CircularLinkedList::push_back Pages: 1 -->
<svg width="256pt" height="230pt"
 viewBox="0.00 0.00 256.00 230.00" xmlns="http://www.w3.org/2000/svg" xmlns:xlink="http://www.w3.org/1999/xlink">
<g id="graph0" class="graph" transform="scale(1 1) rotate(0) translate(4 226)">
<title>CircularLinkedList::push_back</title>
<!-- Node1 -->
<g id="Node000001" class="node">
<title>Node1</title>
<g id="a_Node000001"><a xlink:title="Add element to the end.">
<polygon fill="#999999" stroke="#666666" points="248,-126 145,-126 145,-96 248,-96 248,-126"/>
<text text-anchor="start" x="153" y="-114" font-family="Helvetica,sans-Serif" font-size="10.00">CircularLinkedList</text>
<text text-anchor="middle" x="196.5" y="-103" font-family="Helvetica,sans-Serif" font-size="10.00">::push_back</text>
</a>
</g>
</g>
<!-- Node2 -->
<g id="Node000002" class="node">
<title>Node2</title>
<g id="a_Node000002"><a xlink:href="classCircularLinkedList.html#a89f368dc6bebade45703998f9b055055" target="_top" xlink:title="Replace list content.">
<polygon fill="white" stroke="#666666" points="106,-222 3,-222 3,-192 106,-192 106,-222"/>
<text text-anchor="start" x="11" y="-210" font-family="Helvetica,sans-Serif" font-size="10.00">CircularLinkedList</text>
<text text-anchor="middle" x="54.5" y="-199" font-family="Helvetica,sans-Serif" font-size="10.00">::assign</text>
</a>
</g>
</g>
<!-- Node1&#45;&gt;Node2 -->
<g id="edge1_Node000001_Node000002" class="edge">
<title>Node1&#45;&gt;Node2</title>
<g id="a_edge1_Node000001_Node000002"><a xlink:title=" ">
<path fill="none" stroke="#63b8ff" d="M172.33,-133.29C155.64,-148.57 132.08,-168.6 109,-183 103.9,-186.18 98.32,-189.17 92.73,-191.89"/>
<polygon fill="#63b8ff" stroke="#63b8ff" points="175,-135.59 179.94,-126.22 170.23,-130.46 175,-135.59"/>
</a>
</g>
</g>
<!-- Node3 -->
<g id="Node000003" class="node">
<title>Node3</title>
<g id="a_Node000003"><a xlink:href="classCircularLinkedList.html#a849dcf92d742144b5f326a8a1df874e5" target="_top" xlink:title="Copy constructor.">
<polygon fill="white" stroke="#666666" points="109,-174 0,-174 0,-144 109,-144 109,-174"/>
<text text-anchor="start" x="8" y="-162" font-family="Helvetica,sans-Serif" font-size="10.00">CircularLinkedList</text>
<text text-anchor="middle" x="54.5" y="-151" font-family="Helvetica,sans-Serif" font-size="10.00">::CircularLinkedList</text>
</a>
</g>
</g>
<!-- Node1&#45;&gt;Node3 -->
<g id="edge2_Node000001_Node000003" class="edge">
<title>Node1&#45;&gt;Node3</title>
<g id="a_edge2_Node000001_Node000003"><a xlink:title=" ">
<path fill="none" stroke="#63b8ff" d="M141.99,-129.35C127.87,-134.19 112.8,-139.36 99.26,-144"/>
<polygon fill="#63b8ff" stroke="#63b8ff" points="143.26,-132.61 151.59,-126.06 140.99,-125.99 143.26,-132.61"/>
</a>
</g>
</g>
<!-- Node4 -->
<g id="Node000004" class="node">
<title>Node4</title>
<g id="a_Node000004"><a xlink:href="classCircularLinkedList.html#a15fa043a107f6d4b74efcc4eaf62d778" target="_top" xlink:title="Insert element before position.">
<polygon fill="white" stroke="#666666" points="106,-126 3,-126 3,-96 106,-96 106,-126"/>
<text text-anchor="start" x="11" y="-114" font-family="Helvetica,sans-Serif" font-size="10.00">CircularLinkedList</text>
<text text-anchor="middle" x="54.5" y="-103" font-family="Helvetica,sans-Serif" font-size="10.00">::insert</text>
</a>
</g>
</g>
<!-- Node1&#45;&gt;Node4 -->
<g id="edge3_Node000001_Node000004" class="edge">
<title>Node1&#45;&gt;Node4</title>
<g id="a_edge3_Node000001_Node000004"><a xlink:title=" ">
<path fill="none" stroke="#63b8ff" d="M134.81,-111C125.35,-111 115.66,-111 106.44,-111"/>
<polygon fill="#63b8ff" stroke="#63b8ff" points="134.96,-114.5 144.96,-111 134.96,-107.5 134.96,-114.5"/>
</a>
</g>
</g>
<!-- Node5 -->
<g id="Node000005" class="node">
<title>Node5</title>
<g id="a_Node000005"><a xlink:href="classCircularLinkedList.html#aecdb2cf9b2580a5e3d7c5c085f02a73d" target="_top" xlink:title="Copy assignment operator.">
<polygon fill="white" stroke="#666666" points="106,-78 3,-78 3,-48 106,-48 106,-78"/>
<text text-anchor="start" x="11" y="-66" font-family="Helvetica,sans-Serif" font-size="10.00">CircularLinkedList</text>
<text text-anchor="middle" x="54.5" y="-55" font-family="Helvetica,sans-Serif" font-size="10.00">::operator=</text>
</a>
</g>
</g>
<!-- Node1&#45;&gt;Node5 -->
<g id="edge4_Node000001_Node000005" class="edge">
<title>Node1&#45;&gt;Node5</title>
<g id="a_edge4_Node000001_Node000005"><a xlink:title=" ">
<path fill="none" stroke="#63b8ff" d="M141.99,-92.65C127.87,-87.81 112.8,-82.64 99.26,-78"/>
<polygon fill="#63b8ff" stroke="#63b8ff" points="140.99,-96.01 151.59,-95.94 143.26,-89.39 140.99,-96.01"/>
</a>
</g>
</g>
<!-- Node6 -->
<g id="Node000006" class="node">
<title>Node6</title>
<g id="a_Node000006"><a xlink:href="classCircularLinkedList.html#a1df3d9dbee88370b95041f6557b5dd3f" target="_top" xlink:title="Add element to the beginning.">
<polygon fill="white" stroke="#666666" points="106,-30 3,-30 3,0 106,0 106,-30"/>
<text text-anchor="start" x="11" y="-18" font-family="Helvetica,sans-Serif" font-size="10.00">CircularLinkedList</text>
<text text-anchor="middle" x="54.5" y="-7" font-family="Helvetica,sans-Serif" font-size="10.00">::push_front</text>
</a>
</g>
</g>
<!-- Node1&#45;&gt;Node6 -->
<g id="edge5_Node000001_Node000006" class="edge">
<title>Node1&#45;&gt;Node6</title>
<g id="a_edge5_Node000001_Node000006"><a xlink:title=" ">
<path fill="none" stroke="#63b8ff" d="M172.33,-88.71C155.64,-73.43 132.08,-53.4 109,-39 103.9,-35.82 98.32,-32.83 92.73,-30.11"/>
<polygon fill="#63b8ff" stroke="#63b8ff" points="170.23,-91.54 179.94,-95.78 175,-86.41 170.23,-91.54"/>
</a>
</g>
</g>
</g>
</svg>
