<?xml version="1.0" encoding="UTF-8" standalone="no"?>
<!DOCTYPE svg PUBLIC "-//W3C//DTD SVG 1.1//EN"
 "http://www.w3.org/Graphics/SVG/1.1/DTD/svg11.dtd">
<!-- Generated by graphviz version 2.43.0 (0)
 -->
<!-- Title: CircularLinkedList::begin Pages: 1 -->
<svg width="389pt" height="230pt"
 viewBox="0.00 0.00 389.00 230.00" xmlns="http://www.w3.org/2000/svg" xmlns:xlink="http://www.w3.org/1999/xlink">

<svg id="main" version="1.1" xmlns="http://www.w3.org/2000/svg" xmlns:xlink="http://www.w3.org/1999/xlink" xml:space="preserve" onload="init(evt)">
<style type="text/css"><![CDATA[
.node, .edge {opacity: 0.7;}
.node.selected, .edge.selected {opacity: 1;}
.edge:hover path { stroke: red; }
.edge:hover polygon { stroke: red; fill: red; }
]]></style>
<script type="application/ecmascript" xlink:href="svg.min.js"/>
<svg id="graph" class="graph">
<g id="graph0" class="graph" transform="scale(1 1) rotate(0) translate(4 226)">
<title>CircularLinkedList::begin</title>
<!-- Node1 -->
<g id="Node000001" class="node">
<title>Node1</title>
<g id="a_Node000001"><a xlink:title="Iterator to beginning of list.">
<polygon fill="#999999" stroke="#666666" points="381,-126 278,-126 278,-96 381,-96 381,-126"/>
<text text-anchor="start" x="286" y="-114" font-family="Helvetica,sans-Serif" font-size="10.00">CircularLinkedList</text>
<text text-anchor="middle" x="329.5" y="-103" font-family="Helvetica,sans-Serif" font-size="10.00">::begin</text>
</a>
</g>
</g>
<!-- Node2 -->
<g id="Node000002" class="node">
<title>Node2</title>
<g id="a_Node000002"><a xlink:href="classCircularLinkedList.html#a306f3305dac99d1d6cc9763594344c86" target="_top" xlink:title="Const iterator to beginning of list.">
<polygon fill="white" stroke="#666666" points="242,-222 139,-222 139,-192 242,-192 242,-222"/>
<text text-anchor="start" x="147" y="-210" font-family="Helvetica,sans-Serif" font-size="10.00">CircularLinkedList</text>
<text text-anchor="middle" x="190.5" y="-199" font-family="Helvetica,sans-Serif" font-size="10.00">::cbegin</text>
</a>
</g>
</g>
<!-- Node1&#45;&gt;Node2 -->
<g id="edge1_Node000001_Node000002" class="edge">
<title>Node1&#45;&gt;Node2</title>
<g id="a_edge1_Node000001_Node000002"><a xlink:title=" ">
<path fill="none" stroke="#63b8ff" d="M305.23,-133.13C288.49,-148.34 264.92,-168.35 242,-183 237.01,-186.19 231.53,-189.22 226.08,-191.99"/>
<polygon fill="#63b8ff" stroke="#63b8ff" points="307.88,-135.45 312.86,-126.1 303.14,-130.3 307.88,-135.45"/>
</a>
</g>
</g>
<!-- Node3 -->
<g id="Node000003" class="node">
<title>Node3</title>
<g id="a_Node000003"><a xlink:href="classCircularLinkedList.html#ab0d026bc229f51244d31a0786c09a6e1" target="_top" xlink:title="Less than operator.">
<polygon fill="white" stroke="#666666" points="242,-174 139,-174 139,-144 242,-144 242,-174"/>
<text text-anchor="start" x="147" y="-162" font-family="Helvetica,sans-Serif" font-size="10.00">CircularLinkedList</text>
<text text-anchor="middle" x="190.5" y="-151" font-family="Helvetica,sans-Serif" font-size="10.00">::operator&lt;</text>
</a>
</g>
</g>
<!-- Node1&#45;&gt;Node3 -->
<g id="edge2_Node000001_Node000003" class="edge">
<title>Node1&#45;&gt;Node3</title>
<g id="a_edge2_Node000001_Node000003"><a xlink:title=" ">
<path fill="none" stroke="#63b8ff" d="M275.74,-129.49C262.04,-134.29 247.44,-139.4 234.32,-144"/>
<polygon fill="#63b8ff" stroke="#63b8ff" points="277.25,-132.67 285.53,-126.06 274.93,-126.06 277.25,-132.67"/>
</a>
</g>
</g>
<!-- Node4 -->
<g id="Node000004" class="node">
<title>Node4</title>
<g id="a_Node000004"><a xlink:href="classCircularLinkedList.html#a3dfbee6fc8c533dadcc5377c0da6fd8f" target="_top" xlink:title="Equality operator.">
<polygon fill="white" stroke="#666666" points="242,-126 139,-126 139,-96 242,-96 242,-126"/>
<text text-anchor="start" x="147" y="-114" font-family="Helvetica,sans-Serif" font-size="10.00">CircularLinkedList</text>
<text text-anchor="middle" x="190.5" y="-103" font-family="Helvetica,sans-Serif" font-size="10.00">::operator==</text>
</a>
</g>
</g>
<!-- Node1&#45;&gt;Node4 -->
<g id="edge3_Node000001_Node000004" class="edge">
<title>Node1&#45;&gt;Node4</title>
<g id="a_edge3_Node000001_Node000004"><a xlink:title=" ">
<path fill="none" stroke="#63b8ff" d="M267.68,-111C259.23,-111 250.62,-111 242.37,-111"/>
<polygon fill="#63b8ff" stroke="#63b8ff" points="267.88,-114.5 277.88,-111 267.88,-107.5 267.88,-114.5"/>
</a>
</g>
</g>
<!-- Node5 -->
<g id="Node000005" class="node">
<title>Node5</title>
<g id="a_Node000005"><a xlink:href="classCircularLinkedList.html#a0755411c1b79a482562510c0ee6ab2d7" target="_top" xlink:title="Reverse iterator to end of reversed list.">
<polygon fill="white" stroke="#666666" points="242,-78 139,-78 139,-48 242,-48 242,-78"/>
<text text-anchor="start" x="147" y="-66" font-family="Helvetica,sans-Serif" font-size="10.00">CircularLinkedList</text>
<text text-anchor="middle" x="190.5" y="-55" font-family="Helvetica,sans-Serif" font-size="10.00">::rend</text>
</a>
</g>
</g>
<!-- Node1&#45;&gt;Node5 -->
<g id="edge4_Node000001_Node000005" class="edge">
<title>Node1&#45;&gt;Node5</title>
<g id="a_edge4_Node000001_Node000005"><a xlink:title=" ">
<path fill="none" stroke="#63b8ff" d="M275.74,-92.51C262.04,-87.71 247.44,-82.6 234.32,-78"/>
<polygon fill="#63b8ff" stroke="#63b8ff" points="274.93,-95.94 285.53,-95.94 277.25,-89.33 274.93,-95.94"/>
</a>
</g>
</g>
<!-- Node7 -->
<g id="Node000007" class="node">
<title>Node7</title>
<g id="a_Node000007"><a xlink:href="classCircularLinkedList.html#a35568caca5de0678cefdfc7f9f61a734" target="_top" xlink:title="Const reverse iterator to end of reversed list.">
<polygon fill="white" stroke="#666666" points="242,-30 139,-30 139,0 242,0 242,-30"/>
<text text-anchor="start" x="147" y="-18" font-family="Helvetica,sans-Serif" font-size="10.00">CircularLinkedList</text>
<text text-anchor="middle" x="190.5" y="-7" font-family="Helvetica,sans-Serif" font-size="10.00">::rend</text>
</a>
</g>
</g>
<!-- Node1&#45;&gt;Node7 -->
<g id="edge6_Node000001_Node000007" class="edge">
<title>Node1&#45;&gt;Node7</title>
<g id="a_edge6_Node000001_Node000007"><a xlink:title=" ">
<path fill="none" stroke="#63b8ff" d="M305.23,-88.87C288.49,-73.66 264.92,-53.65 242,-39 237.01,-35.81 231.53,-32.78 226.08,-30.01"/>
<polygon fill="#63b8ff" stroke="#63b8ff" points="303.14,-91.7 312.86,-95.9 307.88,-86.55 303.14,-91.7"/>
</a>
</g>
</g>
<!-- Node6 -->
<g id="Node000006" class="node">
<title>Node6</title>
<g id="a_Node000006"><a xlink:href="classCircularLinkedList.html#a8ce115884e6649d87e2a6aa53798782d" target="_top" xlink:title="Const reverse iterator to end of reversed list.">
<polygon fill="white" stroke="#666666" points="103,-78 0,-78 0,-48 103,-48 103,-78"/>
<text text-anchor="start" x="8" y="-66" font-family="Helvetica,sans-Serif" font-size="10.00">CircularLinkedList</text>
<text text-anchor="middle" x="51.5" y="-55" font-family="Helvetica,sans-Serif" font-size="10.00">::crend</text>
</a>
</g>
</g>
<!-- Node5&#45;&gt;Node6 -->
<g id="edge5_Node000005_Node000006" class="edge">
<title>Node5&#45;&gt;Node6</title>
<g id="a_edge5_Node000005_Node000006"><a xlink:title=" ">
<path fill="none" stroke="#63b8ff" d="M128.68,-63C120.23,-63 111.62,-63 103.37,-63"/>
<polygon fill="#63b8ff" stroke="#63b8ff" points="128.88,-66.5 138.88,-63 128.88,-59.5 128.88,-66.5"/>
</a>
</g>
</g>
</g>
</svg>
</svg>

<style type='text/css'>
<![CDATA[
[data-mouse-over-selected='false'] { opacity: 0.7; }
[data-mouse-over-selected='true']  { opacity: 1.0; }
]]>
</style>
<script type="application/ecmascript"><![CDATA[
document.addEventListener('DOMContentLoaded', (event) => {
  highlightEdges();
  highlightAdjacentNodes();
});
]]></script>
</svg>
