<?xml version="1.0" encoding="UTF-8" standalone="no"?>
<!DOCTYPE svg PUBLIC "-//W3C//DTD SVG 1.1//EN"
 "http://www.w3.org/Graphics/SVG/1.1/DTD/svg11.dtd">
<!-- Generated by graphviz version 2.43.0 (0)
 -->
<!-- Title: CircularLinkedList::operator= Pages: 1 -->
<svg width="528pt" height="59pt"
 viewBox="0.00 0.00 528.00 59.00" xmlns="http://www.w3.org/2000/svg" xmlns:xlink="http://www.w3.org/1999/xlink">
<g id="graph0" class="graph" transform="scale(1 1) rotate(0) translate(4 55)">
<title>CircularLinkedList::operator=</title>
<!-- Node1 -->
<g id="Node000001" class="node">
<title>Node1</title>
<g id="a_Node000001"><a xlink:title="Move assignment operator.">
<polygon fill="#999999" stroke="#666666" points="103,-51 0,-51 0,-21 103,-21 103,-51"/>
<text text-anchor="start" x="8" y="-39" font-family="Helvetica,sans-Serif" font-size="10.00">CircularLinkedList</text>
<text text-anchor="middle" x="51.5" y="-28" font-family="Helvetica,sans-Serif" font-size="10.00">::operator=</text>
</a>
</g>
</g>
<!-- Node2 -->
<g id="Node000002" class="node">
<title>Node2</title>
<g id="a_Node000002"><a xlink:href="classCircularLinkedList.html#a44b06ab6e05764613a20b72985e90250" target="_top" xlink:title="Clear the list.">
<polygon fill="white" stroke="#666666" points="242,-51 139,-51 139,-21 242,-21 242,-51"/>
<text text-anchor="start" x="147" y="-39" font-family="Helvetica,sans-Serif" font-size="10.00">CircularLinkedList</text>
<text text-anchor="middle" x="190.5" y="-28" font-family="Helvetica,sans-Serif" font-size="10.00">::clear</text>
</a>
</g>
</g>
<!-- Node1&#45;&gt;Node2 -->
<g id="edge1_Node000001_Node000002" class="edge">
<title>Node1&#45;&gt;Node2</title>
<g id="a_edge1_Node000001_Node000002"><a xlink:title=" ">
<path fill="none" stroke="#63b8ff" d="M103.12,-36C111.36,-36 119.97,-36 128.42,-36"/>
<polygon fill="#63b8ff" stroke="#63b8ff" points="128.63,-39.5 138.63,-36 128.63,-32.5 128.63,-39.5"/>
</a>
</g>
</g>
<!-- Node3 -->
<g id="Node000003" class="node">
<title>Node3</title>
<g id="a_Node000003"><a xlink:href="classCircularLinkedList.html#a8436a0177cb8927954f142c8d2ccfd93" target="_top" xlink:title="Check if list is empty.">
<polygon fill="white" stroke="#666666" points="520,-51 417,-51 417,-21 520,-21 520,-51"/>
<text text-anchor="start" x="425" y="-39" font-family="Helvetica,sans-Serif" font-size="10.00">CircularLinkedList</text>
<text text-anchor="middle" x="468.5" y="-28" font-family="Helvetica,sans-Serif" font-size="10.00">::empty</text>
</a>
</g>
</g>
<!-- Node2&#45;&gt;Node3 -->
<g id="edge2_Node000002_Node000003" class="edge">
<title>Node2&#45;&gt;Node3</title>
<g id="a_edge2_Node000002_Node000003"><a xlink:title=" ">
<path fill="none" stroke="#63b8ff" d="M242.26,-38.05C254,-38.45 266.43,-38.8 278,-39 323.77,-39.79 335.23,-39.79 381,-39 389.31,-38.86 398.08,-38.63 406.71,-38.37"/>
<polygon fill="#63b8ff" stroke="#63b8ff" points="406.85,-41.87 416.74,-38.05 406.63,-34.88 406.85,-41.87"/>
</a>
</g>
</g>
<!-- Node4 -->
<g id="Node000004" class="node">
<title>Node4</title>
<g id="a_Node000004"><a xlink:href="classCircularLinkedList.html#a0c43c6b0d2623d8c65e94ee02983169e" target="_top" xlink:title="Remove first element.">
<polygon fill="white" stroke="#666666" points="381,-30 278,-30 278,0 381,0 381,-30"/>
<text text-anchor="start" x="286" y="-18" font-family="Helvetica,sans-Serif" font-size="10.00">CircularLinkedList</text>
<text text-anchor="middle" x="329.5" y="-7" font-family="Helvetica,sans-Serif" font-size="10.00">::pop_front</text>
</a>
</g>
</g>
<!-- Node2&#45;&gt;Node4 -->
<g id="edge3_Node000002_Node000004" class="edge">
<title>Node2&#45;&gt;Node4</title>
<g id="a_edge3_Node000002_Node000004"><a xlink:title=" ">
<path fill="none" stroke="#63b8ff" d="M242.12,-28.24C250.45,-26.96 259.16,-25.63 267.7,-24.32"/>
<polygon fill="#63b8ff" stroke="#63b8ff" points="268.27,-27.77 277.63,-22.8 267.21,-20.85 268.27,-27.77"/>
</a>
</g>
</g>
<!-- Node4&#45;&gt;Node3 -->
<g id="edge4_Node000004_Node000003" class="edge">
<title>Node4&#45;&gt;Node3</title>
<g id="a_edge4_Node000004_Node000003"><a xlink:title=" ">
<path fill="none" stroke="#63b8ff" d="M381.12,-22.76C389.45,-24.04 398.16,-25.37 406.7,-26.68"/>
<polygon fill="#63b8ff" stroke="#63b8ff" points="406.21,-30.15 416.63,-28.2 407.27,-23.23 406.21,-30.15"/>
</a>
</g>
</g>
</g>
</svg>
