<?xml version="1.0" encoding="UTF-8" standalone="no"?>
<!DOCTYPE svg PUBLIC "-//W3C//DTD SVG 1.1//EN"
 "http://www.w3.org/Graphics/SVG/1.1/DTD/svg11.dtd">
<!-- Generated by graphviz version 2.43.0 (0)
 -->
<!-- Title: CircularLinkedList::operator= Pages: 1 -->
<svg width="528pt" height="100pt"
 viewBox="0.00 0.00 528.00 99.63" xmlns="http://www.w3.org/2000/svg" xmlns:xlink="http://www.w3.org/1999/xlink">
<g id="graph0" class="graph" transform="scale(1 1) rotate(0) translate(4 95.63)">
<title>CircularLinkedList::operator=</title>
<!-- Node1 -->
<g id="Node000001" class="node">
<title>Node1</title>
<g id="a_Node000001"><a xlink:title="Copy assignment operator.">
<polygon fill="#999999" stroke="#666666" points="103,-54 0,-54 0,-24 103,-24 103,-54"/>
<text text-anchor="start" x="8" y="-42" font-family="Helvetica,sans-Serif" font-size="10.00">CircularLinkedList</text>
<text text-anchor="middle" x="51.5" y="-31" font-family="Helvetica,sans-Serif" font-size="10.00">::operator=</text>
</a>
</g>
</g>
<!-- Node2 -->
<g id="Node000002" class="node">
<title>Node2</title>
<g id="a_Node000002"><a xlink:href="classCircularLinkedList.html#a44b06ab6e05764613a20b72985e90250" target="_top" xlink:title="Clear the list.">
<polygon fill="white" stroke="#666666" points="242,-78 139,-78 139,-48 242,-48 242,-78"/>
<text text-anchor="start" x="147" y="-66" font-family="Helvetica,sans-Serif" font-size="10.00">CircularLinkedList</text>
<text text-anchor="middle" x="190.5" y="-55" font-family="Helvetica,sans-Serif" font-size="10.00">::clear</text>
</a>
</g>
</g>
<!-- Node1&#45;&gt;Node2 -->
<g id="edge1_Node000001_Node000002" class="edge">
<title>Node1&#45;&gt;Node2</title>
<g id="a_edge1_Node000001_Node000002"><a xlink:title=" ">
<path fill="none" stroke="#63b8ff" d="M103.12,-47.87C111.45,-49.33 120.16,-50.85 128.7,-52.35"/>
<polygon fill="#63b8ff" stroke="#63b8ff" points="128.17,-55.81 138.63,-54.09 129.38,-48.91 128.17,-55.81"/>
</a>
</g>
</g>
<!-- Node5 -->
<g id="Node000005" class="node">
<title>Node5</title>
<g id="a_Node000005"><a xlink:href="classCircularLinkedList.html#ab85b1b232ff4db03f4e0279a951637a0" target="_top" xlink:title="Add element to the end.">
<polygon fill="white" stroke="#666666" points="381,-30 278,-30 278,0 381,0 381,-30"/>
<text text-anchor="start" x="286" y="-18" font-family="Helvetica,sans-Serif" font-size="10.00">CircularLinkedList</text>
<text text-anchor="middle" x="329.5" y="-7" font-family="Helvetica,sans-Serif" font-size="10.00">::push_back</text>
</a>
</g>
</g>
<!-- Node1&#45;&gt;Node5 -->
<g id="edge5_Node000001_Node000005" class="edge">
<title>Node1&#45;&gt;Node5</title>
<g id="a_edge5_Node000001_Node000005"><a xlink:title=" ">
<path fill="none" stroke="#63b8ff" d="M103.12,-34.6C149.47,-30.57 218.15,-24.6 267.51,-20.3"/>
<polygon fill="#63b8ff" stroke="#63b8ff" points="268.07,-23.77 277.73,-19.41 267.47,-16.79 268.07,-23.77"/>
</a>
</g>
</g>
<!-- Node3 -->
<g id="Node000003" class="node">
<title>Node3</title>
<g id="a_Node000003"><a xlink:href="classCircularLinkedList.html#a8436a0177cb8927954f142c8d2ccfd93" target="_top" xlink:title="Check if list is empty.">
<polygon fill="white" stroke="#666666" points="520,-78 417,-78 417,-48 520,-48 520,-78"/>
<text text-anchor="start" x="425" y="-66" font-family="Helvetica,sans-Serif" font-size="10.00">CircularLinkedList</text>
<text text-anchor="middle" x="468.5" y="-55" font-family="Helvetica,sans-Serif" font-size="10.00">::empty</text>
</a>
</g>
</g>
<!-- Node2&#45;&gt;Node3 -->
<g id="edge2_Node000002_Node000003" class="edge">
<title>Node2&#45;&gt;Node3</title>
<g id="a_edge2_Node000002_Node000003"><a xlink:title=" ">
<path fill="none" stroke="#63b8ff" d="M236.81,-78.05C249.94,-81.74 264.41,-85.15 278,-87 323.36,-93.18 335.64,-93.18 381,-87 391.3,-85.6 402.1,-83.3 412.45,-80.66"/>
<polygon fill="#63b8ff" stroke="#63b8ff" points="413.44,-84.02 422.19,-78.05 411.63,-77.26 413.44,-84.02"/>
</a>
</g>
</g>
<!-- Node4 -->
<g id="Node000004" class="node">
<title>Node4</title>
<g id="a_Node000004"><a xlink:href="classCircularLinkedList.html#a0c43c6b0d2623d8c65e94ee02983169e" target="_top" xlink:title="Remove first element.">
<polygon fill="white" stroke="#666666" points="381,-78 278,-78 278,-48 381,-48 381,-78"/>
<text text-anchor="start" x="286" y="-66" font-family="Helvetica,sans-Serif" font-size="10.00">CircularLinkedList</text>
<text text-anchor="middle" x="329.5" y="-55" font-family="Helvetica,sans-Serif" font-size="10.00">::pop_front</text>
</a>
</g>
</g>
<!-- Node2&#45;&gt;Node4 -->
<g id="edge3_Node000002_Node000004" class="edge">
<title>Node2&#45;&gt;Node4</title>
<g id="a_edge3_Node000002_Node000004"><a xlink:title=" ">
<path fill="none" stroke="#63b8ff" d="M242.12,-63C250.36,-63 258.97,-63 267.42,-63"/>
<polygon fill="#63b8ff" stroke="#63b8ff" points="267.63,-66.5 277.63,-63 267.63,-59.5 267.63,-66.5"/>
</a>
</g>
</g>
<!-- Node4&#45;&gt;Node3 -->
<g id="edge4_Node000004_Node000003" class="edge">
<title>Node4&#45;&gt;Node3</title>
<g id="a_edge4_Node000004_Node000003"><a xlink:title=" ">
<path fill="none" stroke="#63b8ff" d="M381.12,-63C389.36,-63 397.97,-63 406.42,-63"/>
<polygon fill="#63b8ff" stroke="#63b8ff" points="406.63,-66.5 416.63,-63 406.63,-59.5 406.63,-66.5"/>
</a>
</g>
</g>
<!-- Node5&#45;&gt;Node3 -->
<g id="edge6_Node000005_Node000003" class="edge">
<title>Node5&#45;&gt;Node3</title>
<g id="a_edge6_Node000005_Node000003"><a xlink:title=" ">
<path fill="none" stroke="#63b8ff" d="M373.47,-30.06C386.61,-34.66 401.2,-39.77 414.9,-44.57"/>
<polygon fill="#63b8ff" stroke="#63b8ff" points="414.09,-47.99 424.68,-48 416.4,-41.39 414.09,-47.99"/>
</a>
</g>
</g>
</g>
</svg>
