<?xml version="1.0" encoding="UTF-8" standalone="no"?>
<!DOCTYPE svg PUBLIC "-//W3C//DTD SVG 1.1//EN"
 "http://www.w3.org/Graphics/SVG/1.1/DTD/svg11.dtd">
<!-- Generated by graphviz version 2.43.0 (0)
 -->
<!-- Title: CircularLinkedList::~CircularLinkedList Pages: 1 -->
<svg width="542pt" height="59pt"
 viewBox="0.00 0.00 542.00 59.00" xmlns="http://www.w3.org/2000/svg" xmlns:xlink="http://www.w3.org/1999/xlink">
<g id="graph0" class="graph" transform="scale(1 1) rotate(0) translate(4 55)">
<title>CircularLinkedList::~CircularLinkedList</title>
<!-- Node1 -->
<g id="Node000001" class="node">
<title>Node1</title>
<g id="a_Node000001"><a xlink:title="Destructor.">
<polygon fill="#999999" stroke="#666666" points="117,-51 0,-51 0,-21 117,-21 117,-51"/>
<text text-anchor="start" x="8" y="-39" font-family="Helvetica,sans-Serif" font-size="10.00">CircularLinkedList</text>
<text text-anchor="middle" x="58.5" y="-28" font-family="Helvetica,sans-Serif" font-size="10.00">::~CircularLinkedList</text>
</a>
</g>
</g>
<!-- Node2 -->
<g id="Node000002" class="node">
<title>Node2</title>
<g id="a_Node000002"><a xlink:href="classCircularLinkedList.html#a44b06ab6e05764613a20b72985e90250" target="_top" xlink:title="Clear the list.">
<polygon fill="white" stroke="#666666" points="256,-51 153,-51 153,-21 256,-21 256,-51"/>
<text text-anchor="start" x="161" y="-39" font-family="Helvetica,sans-Serif" font-size="10.00">CircularLinkedList</text>
<text text-anchor="middle" x="204.5" y="-28" font-family="Helvetica,sans-Serif" font-size="10.00">::clear</text>
</a>
</g>
</g>
<!-- Node1&#45;&gt;Node2 -->
<g id="edge1_Node000001_Node000002" class="edge">
<title>Node1&#45;&gt;Node2</title>
<g id="a_edge1_Node000001_Node000002"><a xlink:title=" ">
<path fill="none" stroke="#63b8ff" d="M117.24,-36C125.58,-36 134.2,-36 142.6,-36"/>
<polygon fill="#63b8ff" stroke="#63b8ff" points="142.72,-39.5 152.72,-36 142.72,-32.5 142.72,-39.5"/>
</a>
</g>
</g>
<!-- Node3 -->
<g id="Node000003" class="node">
<title>Node3</title>
<g id="a_Node000003"><a xlink:href="classCircularLinkedList.html#a8436a0177cb8927954f142c8d2ccfd93" target="_top" xlink:title="Check if list is empty.">
<polygon fill="white" stroke="#666666" points="534,-51 431,-51 431,-21 534,-21 534,-51"/>
<text text-anchor="start" x="439" y="-39" font-family="Helvetica,sans-Serif" font-size="10.00">CircularLinkedList</text>
<text text-anchor="middle" x="482.5" y="-28" font-family="Helvetica,sans-Serif" font-size="10.00">::empty</text>
</a>
</g>
</g>
<!-- Node2&#45;&gt;Node3 -->
<g id="edge2_Node000002_Node000003" class="edge">
<title>Node2&#45;&gt;Node3</title>
<g id="a_edge2_Node000002_Node000003"><a xlink:title=" ">
<path fill="none" stroke="#63b8ff" d="M256.26,-38.05C268,-38.45 280.43,-38.8 292,-39 337.77,-39.79 349.23,-39.79 395,-39 403.31,-38.86 412.08,-38.63 420.71,-38.37"/>
<polygon fill="#63b8ff" stroke="#63b8ff" points="420.85,-41.87 430.74,-38.05 420.63,-34.88 420.85,-41.87"/>
</a>
</g>
</g>
<!-- Node4 -->
<g id="Node000004" class="node">
<title>Node4</title>
<g id="a_Node000004"><a xlink:href="classCircularLinkedList.html#a0c43c6b0d2623d8c65e94ee02983169e" target="_top" xlink:title="Remove first element.">
<polygon fill="white" stroke="#666666" points="395,-30 292,-30 292,0 395,0 395,-30"/>
<text text-anchor="start" x="300" y="-18" font-family="Helvetica,sans-Serif" font-size="10.00">CircularLinkedList</text>
<text text-anchor="middle" x="343.5" y="-7" font-family="Helvetica,sans-Serif" font-size="10.00">::pop_front</text>
</a>
</g>
</g>
<!-- Node2&#45;&gt;Node4 -->
<g id="edge3_Node000002_Node000004" class="edge">
<title>Node2&#45;&gt;Node4</title>
<g id="a_edge3_Node000002_Node000004"><a xlink:title=" ">
<path fill="none" stroke="#63b8ff" d="M256.12,-28.24C264.45,-26.96 273.16,-25.63 281.7,-24.32"/>
<polygon fill="#63b8ff" stroke="#63b8ff" points="282.27,-27.77 291.63,-22.8 281.21,-20.85 282.27,-27.77"/>
</a>
</g>
</g>
<!-- Node4&#45;&gt;Node3 -->
<g id="edge4_Node000004_Node000003" class="edge">
<title>Node4&#45;&gt;Node3</title>
<g id="a_edge4_Node000004_Node000003"><a xlink:title=" ">
<path fill="none" stroke="#63b8ff" d="M395.12,-22.76C403.45,-24.04 412.16,-25.37 420.7,-26.68"/>
<polygon fill="#63b8ff" stroke="#63b8ff" points="420.21,-30.15 430.63,-28.2 421.27,-23.23 420.21,-30.15"/>
</a>
</g>
</g>
</g>
</svg>
