<?xml version="1.0" encoding="UTF-8" standalone="no"?>
<!DOCTYPE svg PUBLIC "-//W3C//DTD SVG 1.1//EN"
 "http://www.w3.org/Graphics/SVG/1.1/DTD/svg11.dtd">
<!-- Generated by graphviz version 2.43.0 (0)
 -->
<!-- Title: CircularLinkedList::pop_front Pages: 1 -->
<svg width="403pt" height="182pt"
 viewBox="0.00 0.00 403.00 182.00" xmlns="http://www.w3.org/2000/svg" xmlns:xlink="http://www.w3.org/1999/xlink">
<g id="graph0" class="graph" transform="scale(1 1) rotate(0) translate(4 178)">
<title>CircularLinkedList::pop_front</title>
<!-- Node1 -->
<g id="Node000001" class="node">
<title>Node1</title>
<g id="a_Node000001"><a xlink:title="Remove first element.">
<polygon fill="#999999" stroke="#666666" points="395,-102 292,-102 292,-72 395,-72 395,-102"/>
<text text-anchor="start" x="300" y="-90" font-family="Helvetica,sans-Serif" font-size="10.00">CircularLinkedList</text>
<text text-anchor="middle" x="343.5" y="-79" font-family="Helvetica,sans-Serif" font-size="10.00">::pop_front</text>
</a>
</g>
</g>
<!-- Node2 -->
<g id="Node000002" class="node">
<title>Node2</title>
<g id="a_Node000002"><a xlink:href="classCircularLinkedList.html#a44b06ab6e05764613a20b72985e90250" target="_top" xlink:title="Clear the list.">
<polygon fill="white" stroke="#666666" points="256,-102 153,-102 153,-72 256,-72 256,-102"/>
<text text-anchor="start" x="161" y="-90" font-family="Helvetica,sans-Serif" font-size="10.00">CircularLinkedList</text>
<text text-anchor="middle" x="204.5" y="-79" font-family="Helvetica,sans-Serif" font-size="10.00">::clear</text>
</a>
</g>
</g>
<!-- Node1&#45;&gt;Node2 -->
<g id="edge1_Node000001_Node000002" class="edge">
<title>Node1&#45;&gt;Node2</title>
<g id="a_edge1_Node000001_Node000002"><a xlink:title=" ">
<path fill="none" stroke="#63b8ff" d="M281.68,-87C273.23,-87 264.62,-87 256.37,-87"/>
<polygon fill="#63b8ff" stroke="#63b8ff" points="281.88,-90.5 291.88,-87 281.88,-83.5 281.88,-90.5"/>
</a>
</g>
</g>
<!-- Node3 -->
<g id="Node000003" class="node">
<title>Node3</title>
<g id="a_Node000003"><a xlink:href="classCircularLinkedList.html#a89f368dc6bebade45703998f9b055055" target="_top" xlink:title="Replace list content.">
<polygon fill="white" stroke="#666666" points="110,-174 7,-174 7,-144 110,-144 110,-174"/>
<text text-anchor="start" x="15" y="-162" font-family="Helvetica,sans-Serif" font-size="10.00">CircularLinkedList</text>
<text text-anchor="middle" x="58.5" y="-151" font-family="Helvetica,sans-Serif" font-size="10.00">::assign</text>
</a>
</g>
</g>
<!-- Node2&#45;&gt;Node3 -->
<g id="edge2_Node000002_Node000003" class="edge">
<title>Node2&#45;&gt;Node3</title>
<g id="a_edge2_Node000002_Node000003"><a xlink:title=" ">
<path fill="none" stroke="#63b8ff" d="M169.32,-107.12C153.6,-116.07 134.57,-126.49 117,-135 110.67,-138.06 103.85,-141.12 97.19,-143.97"/>
<polygon fill="#63b8ff" stroke="#63b8ff" points="171.23,-110.06 178.16,-102.04 167.74,-103.99 171.23,-110.06"/>
</a>
</g>
</g>
<!-- Node4 -->
<g id="Node000004" class="node">
<title>Node4</title>
<g id="a_Node000004"><a xlink:href="classCircularLinkedList.html#a4c10d3bb0969d51ef13d49cc88f17d19" target="_top" xlink:title="Move assignment operator.">
<polygon fill="white" stroke="#666666" points="110,-126 7,-126 7,-96 110,-96 110,-126"/>
<text text-anchor="start" x="15" y="-114" font-family="Helvetica,sans-Serif" font-size="10.00">CircularLinkedList</text>
<text text-anchor="middle" x="58.5" y="-103" font-family="Helvetica,sans-Serif" font-size="10.00">::operator=</text>
</a>
</g>
</g>
<!-- Node2&#45;&gt;Node4 -->
<g id="edge3_Node000002_Node000004" class="edge">
<title>Node2&#45;&gt;Node4</title>
<g id="a_edge3_Node000002_Node000004"><a xlink:title=" ">
<path fill="none" stroke="#63b8ff" d="M142.56,-97.16C131.81,-98.95 120.73,-100.8 110.3,-102.53"/>
<polygon fill="#63b8ff" stroke="#63b8ff" points="143.44,-100.56 152.73,-95.46 142.29,-93.65 143.44,-100.56"/>
</a>
</g>
</g>
<!-- Node5 -->
<g id="Node000005" class="node">
<title>Node5</title>
<g id="a_Node000005"><a xlink:href="classCircularLinkedList.html#aecdb2cf9b2580a5e3d7c5c085f02a73d" target="_top" xlink:title="Copy assignment operator.">
<polygon fill="white" stroke="#666666" points="110,-78 7,-78 7,-48 110,-48 110,-78"/>
<text text-anchor="start" x="15" y="-66" font-family="Helvetica,sans-Serif" font-size="10.00">CircularLinkedList</text>
<text text-anchor="middle" x="58.5" y="-55" font-family="Helvetica,sans-Serif" font-size="10.00">::operator=</text>
</a>
</g>
</g>
<!-- Node2&#45;&gt;Node5 -->
<g id="edge4_Node000002_Node000005" class="edge">
<title>Node2&#45;&gt;Node5</title>
<g id="a_edge4_Node000002_Node000005"><a xlink:title=" ">
<path fill="none" stroke="#63b8ff" d="M142.56,-76.84C131.81,-75.05 120.73,-73.2 110.3,-71.47"/>
<polygon fill="#63b8ff" stroke="#63b8ff" points="142.29,-80.35 152.73,-78.54 143.44,-73.44 142.29,-80.35"/>
</a>
</g>
</g>
<!-- Node6 -->
<g id="Node000006" class="node">
<title>Node6</title>
<g id="a_Node000006"><a xlink:href="classCircularLinkedList.html#a3248c1de21470e7899c294ad7eeaa57a" target="_top" xlink:title="Destructor.">
<polygon fill="white" stroke="#666666" points="117,-30 0,-30 0,0 117,0 117,-30"/>
<text text-anchor="start" x="8" y="-18" font-family="Helvetica,sans-Serif" font-size="10.00">CircularLinkedList</text>
<text text-anchor="middle" x="58.5" y="-7" font-family="Helvetica,sans-Serif" font-size="10.00">::~CircularLinkedList</text>
</a>
</g>
</g>
<!-- Node2&#45;&gt;Node6 -->
<g id="edge5_Node000002_Node000006" class="edge">
<title>Node2&#45;&gt;Node6</title>
<g id="a_edge5_Node000002_Node000006"><a xlink:title=" ">
<path fill="none" stroke="#63b8ff" d="M169.32,-66.88C153.6,-57.93 134.57,-47.51 117,-39 110.67,-35.94 103.85,-32.88 97.19,-30.03"/>
<polygon fill="#63b8ff" stroke="#63b8ff" points="167.74,-70.01 178.16,-71.96 171.23,-63.94 167.74,-70.01"/>
</a>
</g>
</g>
</g>
</svg>
