<?xml version="1.0" encoding="UTF-8" standalone="no"?>
<!DOCTYPE svg PUBLIC "-//W3C//DTD SVG 1.1//EN"
 "http://www.w3.org/Graphics/SVG/1.1/DTD/svg11.dtd">
<!-- Generated by graphviz version 2.43.0 (0)
 -->
<!-- Title: CircularLinkedList::insert Pages: 1 -->
<svg width="413pt" height="90pt"
 viewBox="0.00 0.00 413.00 90.03" xmlns="http://www.w3.org/2000/svg" xmlns:xlink="http://www.w3.org/1999/xlink">
<g id="graph0" class="graph" transform="scale(1 1) rotate(0) translate(4 86.03)">
<title>CircularLinkedList::insert</title>
<!-- Node1 -->
<g id="Node000001" class="node">
<title>Node1</title>
<g id="a_Node000001"><a xlink:title="Insert element before position.">
<polygon fill="#999999" stroke="#666666" points="103,-73 0,-73 0,-43 103,-43 103,-73"/>
<text text-anchor="start" x="8" y="-61" font-family="Helvetica,sans-Serif" font-size="10.00">CircularLinkedList</text>
<text text-anchor="middle" x="51.5" y="-50" font-family="Helvetica,sans-Serif" font-size="10.00">::insert</text>
</a>
</g>
</g>
<!-- Node2 -->
<g id="Node000002" class="node">
<title>Node2</title>
<g id="a_Node000002"><a xlink:href="classCircularLinkedList.html#a8436a0177cb8927954f142c8d2ccfd93" target="_top" xlink:title="Check if list is empty.">
<polygon fill="white" stroke="#666666" points="405,-70 302,-70 302,-40 405,-40 405,-70"/>
<text text-anchor="start" x="310" y="-58" font-family="Helvetica,sans-Serif" font-size="10.00">CircularLinkedList</text>
<text text-anchor="middle" x="353.5" y="-47" font-family="Helvetica,sans-Serif" font-size="10.00">::empty</text>
</a>
</g>
</g>
<!-- Node1&#45;&gt;Node2 -->
<g id="edge1_Node000001_Node000002" class="edge">
<title>Node1&#45;&gt;Node2</title>
<g id="a_edge1_Node000001_Node000002"><a xlink:title=" ">
<path fill="none" stroke="#63b8ff" d="M103.43,-71.1C115.04,-73.55 127.38,-75.74 139,-77 195.11,-83.09 209.99,-84.01 266,-77 274.6,-75.92 283.58,-74.27 292.35,-72.33"/>
<polygon fill="#63b8ff" stroke="#63b8ff" points="293.19,-75.73 302.13,-70.05 291.6,-68.91 293.19,-75.73"/>
</a>
</g>
</g>
<!-- Node3 -->
<g id="Node000003" class="node">
<title>Node3</title>
<g id="a_Node000003"><a xlink:href="classCircularLinkedList.html#a5a6d37c4e6f392a46ae7be6a60a77960" target="_top" xlink:title="Iterator to end of list.">
<polygon fill="white" stroke="#666666" points="266,-67.5 139,-67.5 139,-48.5 266,-48.5 266,-67.5"/>
<text text-anchor="middle" x="202.5" y="-55.5" font-family="Helvetica,sans-Serif" font-size="10.00">CircularLinkedList::end</text>
</a>
</g>
</g>
<!-- Node1&#45;&gt;Node3 -->
<g id="edge2_Node000001_Node000003" class="edge">
<title>Node1&#45;&gt;Node3</title>
<g id="a_edge2_Node000001_Node000003"><a xlink:title=" ">
<path fill="none" stroke="#63b8ff" d="M103.36,-58C111.54,-58 120.15,-58 128.72,-58"/>
<polygon fill="#63b8ff" stroke="#63b8ff" points="128.74,-61.5 138.74,-58 128.74,-54.5 128.74,-61.5"/>
</a>
</g>
</g>
<!-- Node4 -->
<g id="Node000004" class="node">
<title>Node4</title>
<g id="a_Node000004"><a xlink:href="classCircularLinkedList.html#ab85b1b232ff4db03f4e0279a951637a0" target="_top" xlink:title="Add element to the end.">
<polygon fill="white" stroke="#666666" points="254,-30 151,-30 151,0 254,0 254,-30"/>
<text text-anchor="start" x="159" y="-18" font-family="Helvetica,sans-Serif" font-size="10.00">CircularLinkedList</text>
<text text-anchor="middle" x="202.5" y="-7" font-family="Helvetica,sans-Serif" font-size="10.00">::push_back</text>
</a>
</g>
</g>
<!-- Node1&#45;&gt;Node4 -->
<g id="edge3_Node000001_Node000004" class="edge">
<title>Node1&#45;&gt;Node4</title>
<g id="a_edge3_Node000001_Node000004"><a xlink:title=" ">
<path fill="none" stroke="#63b8ff" d="M103.36,-43.32C115.47,-39.83 128.5,-36.07 141,-32.46"/>
<polygon fill="#63b8ff" stroke="#63b8ff" points="142.23,-35.75 150.87,-29.61 140.29,-29.02 142.23,-35.75"/>
</a>
</g>
</g>
<!-- Node4&#45;&gt;Node2 -->
<g id="edge4_Node000004_Node000002" class="edge">
<title>Node4&#45;&gt;Node2</title>
<g id="a_edge4_Node000004_Node000002"><a xlink:title=" ">
<path fill="none" stroke="#63b8ff" d="M254.36,-28.65C266.47,-31.9 279.5,-35.4 292,-38.76"/>
<polygon fill="#63b8ff" stroke="#63b8ff" points="291.3,-42.2 301.87,-41.41 293.12,-35.43 291.3,-42.2"/>
</a>
</g>
</g>
</g>
</svg>
