<?xml version="1.0" encoding="UTF-8" standalone="no"?>
<!DOCTYPE svg PUBLIC "-//W3C//DTD SVG 1.1//EN"
 "http://www.w3.org/Graphics/SVG/1.1/DTD/svg11.dtd">
<!-- Generated by graphviz version 2.43.0 (0)
 -->
<!-- Title: CircularLinkedList::operator== Pages: 1 -->
<svg width="274pt" height="172pt"
 viewBox="0.00 0.00 274.00 172.00" xmlns="http://www.w3.org/2000/svg" xmlns:xlink="http://www.w3.org/1999/xlink">

<svg id="main" version="1.1" xmlns="http://www.w3.org/2000/svg" xmlns:xlink="http://www.w3.org/1999/xlink" xml:space="preserve" onload="init(evt)">
<style type="text/css"><![CDATA[
.node, .edge {opacity: 0.7;}
.node.selected, .edge.selected {opacity: 1;}
.edge:hover path { stroke: red; }
.edge:hover polygon { stroke: red; fill: red; }
]]></style>
<script type="application/ecmascript" xlink:href="svg.min.js"/>
<svg id="graph" class="graph">
<g id="graph0" class="graph" transform="scale(1 1) rotate(0) translate(4 168)">
<title>CircularLinkedList::operator==</title>
<!-- Node1 -->
<g id="Node000001" class="node">
<title>Node1</title>
<g id="a_Node000001"><a xlink:title="Equality operator.">
<polygon fill="#999999" stroke="#666666" points="103,-94 0,-94 0,-64 103,-64 103,-94"/>
<text text-anchor="start" x="8" y="-82" font-family="Helvetica,sans-Serif" font-size="10.00">CircularLinkedList</text>
<text text-anchor="middle" x="51.5" y="-71" font-family="Helvetica,sans-Serif" font-size="10.00">::operator==</text>
</a>
</g>
</g>
<!-- Node2 -->
<g id="Node000002" class="node">
<title>Node2</title>
<g id="a_Node000002"><a xlink:href="classCircularLinkedList.html#a2090cf25850476adc1ccd4975188023a" target="_top" xlink:title="Iterator to beginning of list.">
<polygon fill="white" stroke="#666666" points="254,-164 151,-164 151,-134 254,-134 254,-164"/>
<text text-anchor="start" x="159" y="-152" font-family="Helvetica,sans-Serif" font-size="10.00">CircularLinkedList</text>
<text text-anchor="middle" x="202.5" y="-141" font-family="Helvetica,sans-Serif" font-size="10.00">::begin</text>
</a>
</g>
</g>
<!-- Node1&#45;&gt;Node2 -->
<g id="edge1_Node000001_Node000002" class="edge">
<title>Node1&#45;&gt;Node2</title>
<g id="a_edge1_Node000001_Node000002"><a xlink:title=" ">
<path fill="none" stroke="#63b8ff" d="M78.96,-94.15C95.87,-103.57 118.42,-115.62 139,-125 142.81,-126.74 146.78,-128.46 150.8,-130.14"/>
<polygon fill="#63b8ff" stroke="#63b8ff" points="149.61,-133.43 160.19,-133.96 152.24,-126.95 149.61,-133.43"/>
</a>
</g>
</g>
<!-- Node3 -->
<g id="Node000003" class="node">
<title>Node3</title>
<g id="a_Node000003"><a xlink:href="classCircularLinkedList.html#a8436a0177cb8927954f142c8d2ccfd93" target="_top" xlink:title="Check if list is empty.">
<polygon fill="white" stroke="#666666" points="254,-116 151,-116 151,-86 254,-86 254,-116"/>
<text text-anchor="start" x="159" y="-104" font-family="Helvetica,sans-Serif" font-size="10.00">CircularLinkedList</text>
<text text-anchor="middle" x="202.5" y="-93" font-family="Helvetica,sans-Serif" font-size="10.00">::empty</text>
</a>
</g>
</g>
<!-- Node1&#45;&gt;Node3 -->
<g id="edge2_Node000001_Node000003" class="edge">
<title>Node1&#45;&gt;Node3</title>
<g id="a_edge2_Node000001_Node000003"><a xlink:title=" ">
<path fill="none" stroke="#63b8ff" d="M103.36,-86.51C115.35,-88.28 128.25,-90.18 140.62,-92.01"/>
<polygon fill="#63b8ff" stroke="#63b8ff" points="140.46,-95.53 150.87,-93.52 141.49,-88.6 140.46,-95.53"/>
</a>
</g>
</g>
<!-- Node4 -->
<g id="Node000004" class="node">
<title>Node4</title>
<g id="a_Node000004"><a xlink:href="classCircularLinkedList.html#a5a6d37c4e6f392a46ae7be6a60a77960" target="_top" xlink:title="Iterator to end of list.">
<polygon fill="white" stroke="#666666" points="266,-67.5 139,-67.5 139,-48.5 266,-48.5 266,-67.5"/>
<text text-anchor="middle" x="202.5" y="-55.5" font-family="Helvetica,sans-Serif" font-size="10.00">CircularLinkedList::end</text>
</a>
</g>
</g>
<!-- Node1&#45;&gt;Node4 -->
<g id="edge3_Node000001_Node000004" class="edge">
<title>Node1&#45;&gt;Node4</title>
<g id="a_edge3_Node000001_Node000004"><a xlink:title=" ">
<path fill="none" stroke="#63b8ff" d="M103.36,-71.83C111.54,-70.68 120.15,-69.47 128.72,-68.26"/>
<polygon fill="#63b8ff" stroke="#63b8ff" points="129.33,-71.71 138.74,-66.84 128.35,-64.77 129.33,-71.71"/>
</a>
</g>
</g>
<!-- Node5 -->
<g id="Node000005" class="node">
<title>Node5</title>
<g id="a_Node000005"><a xlink:href="classCircularLinkedList.html#a45a0629cdd4e13aeb39e7688408c6f66" target="_top" xlink:title="Get number of elements.">
<polygon fill="white" stroke="#666666" points="254,-30 151,-30 151,0 254,0 254,-30"/>
<text text-anchor="start" x="159" y="-18" font-family="Helvetica,sans-Serif" font-size="10.00">CircularLinkedList</text>
<text text-anchor="middle" x="202.5" y="-7" font-family="Helvetica,sans-Serif" font-size="10.00">::size</text>
</a>
</g>
</g>
<!-- Node1&#45;&gt;Node5 -->
<g id="edge4_Node000001_Node000005" class="edge">
<title>Node1&#45;&gt;Node5</title>
<g id="a_edge4_Node000001_Node000005"><a xlink:title=" ">
<path fill="none" stroke="#63b8ff" d="M85.21,-63.85C101.34,-56.49 121.11,-47.61 139,-40 143.72,-37.99 148.66,-35.94 153.6,-33.92"/>
<polygon fill="#63b8ff" stroke="#63b8ff" points="155.1,-37.08 163.05,-30.08 152.47,-30.6 155.1,-37.08"/>
</a>
</g>
</g>
</g>
</svg>
</svg>

<style type='text/css'>
<![CDATA[
[data-mouse-over-selected='false'] { opacity: 0.7; }
[data-mouse-over-selected='true']  { opacity: 1.0; }
]]>
</style>
<script type="application/ecmascript"><![CDATA[
document.addEventListener('DOMContentLoaded', (event) => {
  highlightEdges();
  highlightAdjacentNodes();
});
]]></script>
</svg>
