<?xml version="1.0" encoding="UTF-8" standalone="no"?>
<!DOCTYPE svg PUBLIC "-//W3C//DTD SVG 1.1//EN"
 "http://www.w3.org/Graphics/SVG/1.1/DTD/svg11.dtd">
<!-- Generated by graphviz version 2.43.0 (0)
 -->
<!-- Title: CircularLinkedList::empty Pages: 1 -->
<!--zoomable 546 -->

<svg id="main" version="1.1" xmlns="http://www.w3.org/2000/svg" xmlns:xlink="http://www.w3.org/1999/xlink" xml:space="preserve" onload="init(evt)">
<style type="text/css"><![CDATA[
.node, .edge {opacity: 0.7;}
.node.selected, .edge.selected {opacity: 1;}
.edge:hover path { stroke: red; }
.edge:hover polygon { stroke: red; fill: red; }
]]></style>

<defs>
  <circle id="rim" cx="0" cy="0" r="7"/>
  <circle id="rim2" cx="0" cy="0" r="3.5"/>
  <g id="zoomPlus">
    <use xlink:href="#rim" fill="#404040"><set attributeName="fill" to="#808080" begin="zoomplus.mouseover" end="zoomplus.mouseout"/></use>
    <path d="M-4,0h8M0,-4v8" fill="none" stroke="white" stroke-width="1.5" pointer-events="none"/>
  </g>
  <g id="zoomMin">
    <use xlink:href="#rim" fill="#404040"><set attributeName="fill" to="#808080" begin="zoomminus.mouseover" end="zoomminus.mouseout"/></use>
    <path d="M-4,0h8" fill="none" stroke="white" stroke-width="1.5" pointer-events="none"/>
  </g>
  <g id="arrowUp" transform="translate(30 24)">
    <use xlink:href="#rim"/>
    <path pointer-events="none" fill="none" stroke="white" stroke-width="1.5" d="M0,-3.0v7 M-2.5,-0.5L0,-3.0L2.5,-0.5"/>
  </g>
  <g id="arrowRight" transform="rotate(90) translate(36 -43)">
    <use xlink:href="#rim"/>
    <path pointer-events="none" fill="none" stroke="white" stroke-width="1.5" d="M0,-3.0v7 M-2.5,-0.5L0,-3.0L2.5,-0.5"/>
  </g>
  <g id="arrowDown" transform="rotate(180) translate(-30 -48)">
    <use xlink:href="#rim"/>
    <path pointer-events="none" fill="none" stroke="white" stroke-width="1.5" d="M0,-3.0v7 M-2.5,-0.5L0,-3.0L2.5,-0.5"/>
  </g>
  <g id="arrowLeft" transform="rotate(270) translate(-36 17)">
    <use xlink:href="#rim"/>
    <path pointer-events="none" fill="none" stroke="white" stroke-width="1.5" d="M0,-3.0v7 M-2.5,-0.5L0,-3.0L2.5,-0.5"/>
  </g>
  <g id="resetDef">
    <use xlink:href="#rim2" fill="#404040"><set attributeName="fill" to="#808080" begin="reset.mouseover" end="reset.mouseout"/></use>
  </g>
</defs>
<script type="application/ecmascript">
var viewWidth = 548;
var viewHeight = 546;
var sectionId = 'dynsection-13';
</script>
<script type="application/ecmascript" xlink:href="svg.min.js"/>
<svg id="graph" class="graph">
<g id="viewport">
<title>CircularLinkedList::empty</title>
<!-- Node1 -->
<g id="Node000001" class="node">
<title>Node1</title>
<g id="a_Node000001"><a xlink:title="Check if list is empty.">
<polygon fill="#999999" stroke="#666666" points="540,-291 437,-291 437,-261 540,-261 540,-291"/>
<text text-anchor="start" x="445" y="-279" font-family="Helvetica,sans-Serif" font-size="10.00">CircularLinkedList</text>
<text text-anchor="middle" x="488.5" y="-268" font-family="Helvetica,sans-Serif" font-size="10.00">::empty</text>
</a>
</g>
</g>
<!-- Node2 -->
<g id="Node000002" class="node">
<title>Node2</title>
<g id="a_Node000002"><a xlink:href="classCircularLinkedList.html#a575f8f00df8554e6ccb7ce6f1c1b40aa" target="_top" xlink:title="Access last element.">
<polygon fill="white" stroke="#666666" points="401,-538 298,-538 298,-508 401,-508 401,-538"/>
<text text-anchor="start" x="306" y="-526" font-family="Helvetica,sans-Serif" font-size="10.00">CircularLinkedList</text>
<text text-anchor="middle" x="349.5" y="-515" font-family="Helvetica,sans-Serif" font-size="10.00">::back</text>
</a>
</g>
</g>
<!-- Node1&#45;&gt;Node2 -->
<g id="edge1_Node000001_Node000002" class="edge">
<title>Node1&#45;&gt;Node2</title>
<g id="a_edge1_Node000001_Node000002"><a xlink:title=" ">
<path fill="none" stroke="#63b8ff" d="M483.96,-301.08C476.41,-346.05 454.79,-441.1 401,-499 397.83,-502.41 394.07,-505.39 390.06,-507.98"/>
<polygon fill="#63b8ff" stroke="#63b8ff" points="487.45,-301.45 485.55,-291.02 480.53,-300.35 487.45,-301.45"/>
</a>
</g>
</g>
<!-- Node3 -->
<g id="Node000003" class="node">
<title>Node3</title>
<g id="a_Node000003"><a xlink:href="classCircularLinkedList.html#a01c72068384e9ec32e9dbdf05d47490f" target="_top" xlink:title="Const access to last element.">
<polygon fill="white" stroke="#666666" points="401,-490 298,-490 298,-460 401,-460 401,-490"/>
<text text-anchor="start" x="306" y="-478" font-family="Helvetica,sans-Serif" font-size="10.00">CircularLinkedList</text>
<text text-anchor="middle" x="349.5" y="-467" font-family="Helvetica,sans-Serif" font-size="10.00">::back</text>
</a>
</g>
</g>
<!-- Node1&#45;&gt;Node3 -->
<g id="edge2_Node000001_Node000003" class="edge">
<title>Node1&#45;&gt;Node3</title>
<g id="a_edge2_Node000001_Node000003"><a xlink:title=" ">
<path fill="none" stroke="#63b8ff" d="M479.88,-301.05C467.95,-336.82 441.91,-402.97 401,-446 395.91,-451.35 389.62,-456.01 383.23,-459.93"/>
<polygon fill="#63b8ff" stroke="#63b8ff" points="483.25,-301.98 483,-291.39 476.59,-299.83 483.25,-301.98"/>
</a>
</g>
</g>
<!-- Node4 -->
<g id="Node000004" class="node">
<title>Node4</title>
<g id="a_Node000004"><a xlink:href="classCircularLinkedList.html#a44b06ab6e05764613a20b72985e90250" target="_top" xlink:title="Clear the list.">
<polygon fill="white" stroke="#666666" points="259,-468 156,-468 156,-438 259,-438 259,-468"/>
<text text-anchor="start" x="164" y="-456" font-family="Helvetica,sans-Serif" font-size="10.00">CircularLinkedList</text>
<text text-anchor="middle" x="207.5" y="-445" font-family="Helvetica,sans-Serif" font-size="10.00">::clear</text>
</a>
</g>
</g>
<!-- Node1&#45;&gt;Node4 -->
<g id="edge3_Node000001_Node000004" class="edge">
<title>Node1&#45;&gt;Node4</title>
<g id="a_edge3_Node000001_Node000004"><a xlink:title=" ">
<path fill="none" stroke="#63b8ff" d="M478.81,-300.91C466.55,-332.21 441.08,-385.21 401,-413 359.2,-441.98 300.85,-450.78 259.37,-453.07"/>
<polygon fill="#63b8ff" stroke="#63b8ff" points="482.22,-301.78 482.47,-291.19 475.67,-299.32 482.22,-301.78"/>
</a>
</g>
</g>
<!-- Node9 -->
<g id="Node000009" class="node">
<title>Node9</title>
<g id="a_Node000009"><a xlink:href="classCircularLinkedList.html#a47f654d80ad90cb4c3992946c909d089" target="_top" xlink:title="Remove element at position.">
<polygon fill="white" stroke="#666666" points="401,-270 298,-270 298,-240 401,-240 401,-270"/>
<text text-anchor="start" x="306" y="-258" font-family="Helvetica,sans-Serif" font-size="10.00">CircularLinkedList</text>
<text text-anchor="middle" x="349.5" y="-247" font-family="Helvetica,sans-Serif" font-size="10.00">::erase</text>
</a>
</g>
</g>
<!-- Node1&#45;&gt;Node9 -->
<g id="edge8_Node000001_Node000009" class="edge">
<title>Node1&#45;&gt;Node9</title>
<g id="a_edge8_Node000001_Node000009"><a xlink:title=" ">
<path fill="none" stroke="#63b8ff" d="M426.96,-266.72C418.42,-265.41 409.71,-264.08 401.37,-262.8"/>
<polygon fill="#63b8ff" stroke="#63b8ff" points="426.46,-270.18 436.88,-268.24 427.52,-263.27 426.46,-270.18"/>
</a>
</g>
</g>
<!-- Node10 -->
<g id="Node000010" class="node">
<title>Node10</title>
<g id="a_Node000010"><a xlink:href="classCircularLinkedList.html#a4544d44d3159153a1dcb34f5b7679569" target="_top" xlink:title="Access first element.">
<polygon fill="white" stroke="#666666" points="401,-222 298,-222 298,-192 401,-192 401,-222"/>
<text text-anchor="start" x="306" y="-210" font-family="Helvetica,sans-Serif" font-size="10.00">CircularLinkedList</text>
<text text-anchor="middle" x="349.5" y="-199" font-family="Helvetica,sans-Serif" font-size="10.00">::front</text>
</a>
</g>
</g>
<!-- Node1&#45;&gt;Node10 -->
<g id="edge9_Node000001_Node000010" class="edge">
<title>Node1&#45;&gt;Node10</title>
<g id="a_edge9_Node000001_Node000010"><a xlink:title=" ">
<path fill="none" stroke="#63b8ff" d="M450.11,-256.17C434.93,-248.22 417.19,-239.06 401,-231 395.09,-228.06 388.76,-224.99 382.64,-222.06"/>
<polygon fill="#63b8ff" stroke="#63b8ff" points="448.71,-259.39 459.19,-260.95 451.97,-253.2 448.71,-259.39"/>
</a>
</g>
</g>
<!-- Node11 -->
<g id="Node000011" class="node">
<title>Node11</title>
<g id="a_Node000011"><a xlink:href="classCircularLinkedList.html#a83a49573d1ac718f67ea52778969908f" target="_top" xlink:title="Const access to first element.">
<polygon fill="white" stroke="#666666" points="401,-174 298,-174 298,-144 401,-144 401,-174"/>
<text text-anchor="start" x="306" y="-162" font-family="Helvetica,sans-Serif" font-size="10.00">CircularLinkedList</text>
<text text-anchor="middle" x="349.5" y="-151" font-family="Helvetica,sans-Serif" font-size="10.00">::front</text>
</a>
</g>
</g>
<!-- Node1&#45;&gt;Node11 -->
<g id="edge10_Node000001_Node000011" class="edge">
<title>Node1&#45;&gt;Node11</title>
<g id="a_edge10_Node000001_Node000011"><a xlink:title=" ">
<path fill="none" stroke="#63b8ff" d="M470.01,-252.69C453.83,-232.32 428.23,-202.96 401,-183 396.54,-179.73 391.56,-176.72 386.51,-174.03"/>
<polygon fill="#63b8ff" stroke="#63b8ff" points="467.44,-255.08 476.35,-260.81 472.96,-250.77 467.44,-255.08"/>
</a>
</g>
</g>
<!-- Node12 -->
<g id="Node000012" class="node">
<title>Node12</title>
<g id="a_Node000012"><a xlink:href="classCircularLinkedList.html#a15fa043a107f6d4b74efcc4eaf62d778" target="_top" xlink:title="Insert element before position.">
<polygon fill="white" stroke="#666666" points="259,-248 156,-248 156,-218 259,-218 259,-248"/>
<text text-anchor="start" x="164" y="-236" font-family="Helvetica,sans-Serif" font-size="10.00">CircularLinkedList</text>
<text text-anchor="middle" x="207.5" y="-225" font-family="Helvetica,sans-Serif" font-size="10.00">::insert</text>
</a>
</g>
</g>
<!-- Node1&#45;&gt;Node12 -->
<g id="edge11_Node000001_Node000012" class="edge">
<title>Node1&#45;&gt;Node12</title>
<g id="a_edge11_Node000001_Node000012"><a xlink:title=" ">
<path fill="none" stroke="#63b8ff" d="M426.58,-284.65C389,-288.1 340.09,-289.18 298,-279 273.38,-273.04 247.94,-259.08 230.5,-248.09"/>
<polygon fill="#63b8ff" stroke="#63b8ff" points="427.27,-288.1 436.87,-283.62 426.57,-281.13 427.27,-288.1"/>
</a>
</g>
</g>
<!-- Node13 -->
<g id="Node000013" class="node">
<title>Node13</title>
<g id="a_Node000013"><a xlink:href="classCircularLinkedList.html#ab0d026bc229f51244d31a0786c09a6e1" target="_top" xlink:title="Less than operator.">
<polygon fill="white" stroke="#666666" points="401,-126 298,-126 298,-96 401,-96 401,-126"/>
<text text-anchor="start" x="306" y="-114" font-family="Helvetica,sans-Serif" font-size="10.00">CircularLinkedList</text>
<text text-anchor="middle" x="349.5" y="-103" font-family="Helvetica,sans-Serif" font-size="10.00">::operator&lt;</text>
</a>
</g>
</g>
<!-- Node1&#45;&gt;Node13 -->
<g id="edge12_Node000001_Node000013" class="edge">
<title>Node1&#45;&gt;Node13</title>
<g id="a_edge12_Node000001_Node000013"><a xlink:title=" ">
<path fill="none" stroke="#63b8ff" d="M477.66,-251.35C464.31,-220.62 437.85,-168.11 401,-135 397.25,-131.63 392.93,-128.63 388.44,-126"/>
<polygon fill="#63b8ff" stroke="#63b8ff" points="474.56,-253.03 481.67,-260.88 481.01,-250.31 474.56,-253.03"/>
</a>
</g>
</g>
<!-- Node14 -->
<g id="Node000014" class="node">
<title>Node14</title>
<g id="a_Node000014"><a xlink:href="classCircularLinkedList.html#a3dfbee6fc8c533dadcc5377c0da6fd8f" target="_top" xlink:title="Equality operator.">
<polygon fill="white" stroke="#666666" points="401,-78 298,-78 298,-48 401,-48 401,-78"/>
<text text-anchor="start" x="306" y="-66" font-family="Helvetica,sans-Serif" font-size="10.00">CircularLinkedList</text>
<text text-anchor="middle" x="349.5" y="-55" font-family="Helvetica,sans-Serif" font-size="10.00">::operator==</text>
</a>
</g>
</g>
<!-- Node1&#45;&gt;Node14 -->
<g id="edge13_Node000001_Node000014" class="edge">
<title>Node1&#45;&gt;Node14</title>
<g id="a_edge13_Node000001_Node000014"><a xlink:title=" ">
<path fill="none" stroke="#63b8ff" d="M481.98,-251.15C472.06,-211.72 447.76,-134.44 401,-87 397.66,-83.61 393.75,-80.64 389.61,-78.05"/>
<polygon fill="#63b8ff" stroke="#63b8ff" points="478.6,-252.09 484.35,-260.99 485.41,-250.45 478.6,-252.09"/>
</a>
</g>
</g>
<!-- Node15 -->
<g id="Node000015" class="node">
<title>Node15</title>
<g id="a_Node000015"><a xlink:href="classCircularLinkedList.html#a773f536d29989b0fa64ccdcdfd896fd5" target="_top" xlink:title="Remove last element.">
<polygon fill="white" stroke="#666666" points="401,-30 298,-30 298,0 401,0 401,-30"/>
<text text-anchor="start" x="306" y="-18" font-family="Helvetica,sans-Serif" font-size="10.00">CircularLinkedList</text>
<text text-anchor="middle" x="349.5" y="-7" font-family="Helvetica,sans-Serif" font-size="10.00">::pop_back</text>
</a>
</g>
</g>
<!-- Node1&#45;&gt;Node15 -->
<g id="edge14_Node000001_Node000015" class="edge">
<title>Node1&#45;&gt;Node15</title>
<g id="a_edge14_Node000001_Node000015"><a xlink:title=" ">
<path fill="none" stroke="#63b8ff" d="M484.65,-251C478.07,-203.94 457.76,-101.35 401,-39 397.99,-35.7 394.44,-32.81 390.63,-30.29"/>
<polygon fill="#63b8ff" stroke="#63b8ff" points="481.18,-251.48 485.95,-260.94 488.13,-250.57 481.18,-251.48"/>
</a>
</g>
</g>
<!-- Node16 -->
<g id="Node000016" class="node">
<title>Node16</title>
<g id="a_Node000016"><a xlink:href="classCircularLinkedList.html#a0c43c6b0d2623d8c65e94ee02983169e" target="_top" xlink:title="Remove first element.">
<polygon fill="white" stroke="#666666" points="401,-404 298,-404 298,-374 401,-374 401,-404"/>
<text text-anchor="start" x="306" y="-392" font-family="Helvetica,sans-Serif" font-size="10.00">CircularLinkedList</text>
<text text-anchor="middle" x="349.5" y="-381" font-family="Helvetica,sans-Serif" font-size="10.00">::pop_front</text>
</a>
</g>
</g>
<!-- Node1&#45;&gt;Node16 -->
<g id="edge15_Node000001_Node000016" class="edge">
<title>Node1&#45;&gt;Node16</title>
<g id="a_edge15_Node000001_Node000016"><a xlink:title=" ">
<path fill="none" stroke="#63b8ff" d="M469.25,-298.93C452.92,-318.36 427.51,-346 401,-365 396.5,-368.22 391.5,-371.2 386.45,-373.88"/>
<polygon fill="#63b8ff" stroke="#63b8ff" points="472,-301.09 475.67,-291.15 466.61,-296.63 472,-301.09"/>
</a>
</g>
</g>
<!-- Node17 -->
<g id="Node000017" class="node">
<title>Node17</title>
<g id="a_Node000017"><a xlink:href="classCircularLinkedList.html#ab85b1b232ff4db03f4e0279a951637a0" target="_top" xlink:title="Add element to the end.">
<polygon fill="white" stroke="#666666" points="401,-356 298,-356 298,-326 401,-326 401,-356"/>
<text text-anchor="start" x="306" y="-344" font-family="Helvetica,sans-Serif" font-size="10.00">CircularLinkedList</text>
<text text-anchor="middle" x="349.5" y="-333" font-family="Helvetica,sans-Serif" font-size="10.00">::push_back</text>
</a>
</g>
</g>
<!-- Node1&#45;&gt;Node17 -->
<g id="edge17_Node000001_Node000017" class="edge">
<title>Node1&#45;&gt;Node17</title>
<g id="a_edge17_Node000001_Node000017"><a xlink:title=" ">
<path fill="none" stroke="#63b8ff" d="M446.62,-295.39C426.14,-305.11 401.69,-316.71 382.58,-325.78"/>
<polygon fill="#63b8ff" stroke="#63b8ff" points="448.19,-298.52 455.73,-291.08 445.19,-292.2 448.19,-298.52"/>
</a>
</g>
</g>
<!-- Node5 -->
<g id="Node000005" class="node">
<title>Node5</title>
<g id="a_Node000005"><a xlink:href="classCircularLinkedList.html#a89f368dc6bebade45703998f9b055055" target="_top" xlink:title="Replace list content.">
<polygon fill="white" stroke="#666666" points="110,-398 7,-398 7,-368 110,-368 110,-398"/>
<text text-anchor="start" x="15" y="-386" font-family="Helvetica,sans-Serif" font-size="10.00">CircularLinkedList</text>
<text text-anchor="middle" x="58.5" y="-375" font-family="Helvetica,sans-Serif" font-size="10.00">::assign</text>
</a>
</g>
</g>
<!-- Node4&#45;&gt;Node5 -->
<g id="edge4_Node000004_Node000005" class="edge">
<title>Node4&#45;&gt;Node5</title>
<g id="a_edge4_Node000004_Node000005"><a xlink:title=" ">
<path fill="none" stroke="#63b8ff" d="M163.26,-433.76C159.78,-432.17 156.33,-430.56 153,-429 131.72,-418.99 107.94,-407.29 89.69,-398.19"/>
<polygon fill="#63b8ff" stroke="#63b8ff" points="161.9,-436.99 172.45,-437.95 164.8,-430.62 161.9,-436.99"/>
</a>
</g>
</g>
<!-- Node6 -->
<g id="Node000006" class="node">
<title>Node6</title>
<g id="a_Node000006"><a xlink:href="classCircularLinkedList.html#a4c10d3bb0969d51ef13d49cc88f17d19" target="_top" xlink:title="Move assignment operator.">
<polygon fill="white" stroke="#666666" points="110,-505 7,-505 7,-475 110,-475 110,-505"/>
<text text-anchor="start" x="15" y="-493" font-family="Helvetica,sans-Serif" font-size="10.00">CircularLinkedList</text>
<text text-anchor="middle" x="58.5" y="-482" font-family="Helvetica,sans-Serif" font-size="10.00">::operator=</text>
</a>
</g>
</g>
<!-- Node4&#45;&gt;Node6 -->
<g id="edge5_Node000004_Node000006" class="edge">
<title>Node4&#45;&gt;Node6</title>
<g id="a_edge5_Node000004_Node000006"><a xlink:title=" ">
<path fill="none" stroke="#63b8ff" d="M146.04,-468.22C134.12,-471.22 121.74,-474.34 110.18,-477.24"/>
<polygon fill="#63b8ff" stroke="#63b8ff" points="147.07,-471.57 155.91,-465.73 145.36,-464.78 147.07,-471.57"/>
</a>
</g>
</g>
<!-- Node7 -->
<g id="Node000007" class="node">
<title>Node7</title>
<g id="a_Node000007"><a xlink:href="classCircularLinkedList.html#aecdb2cf9b2580a5e3d7c5c085f02a73d" target="_top" xlink:title="Copy assignment operator.">
<polygon fill="white" stroke="#666666" points="110,-331 7,-331 7,-301 110,-301 110,-331"/>
<text text-anchor="start" x="15" y="-319" font-family="Helvetica,sans-Serif" font-size="10.00">CircularLinkedList</text>
<text text-anchor="middle" x="58.5" y="-308" font-family="Helvetica,sans-Serif" font-size="10.00">::operator=</text>
</a>
</g>
</g>
<!-- Node4&#45;&gt;Node7 -->
<g id="edge6_Node000004_Node000007" class="edge">
<title>Node4&#45;&gt;Node7</title>
<g id="a_edge6_Node000004_Node000007"><a xlink:title=" ">
<path fill="none" stroke="#63b8ff" d="M156.48,-432.03C155.27,-431.06 154.11,-430.05 153,-429 127.61,-404.93 139.59,-385.72 117,-359 107.91,-348.24 95.64,-338.6 84.77,-331.19"/>
<polygon fill="#63b8ff" stroke="#63b8ff" points="154.74,-435.08 164.96,-437.87 158.71,-429.32 154.74,-435.08"/>
</a>
</g>
</g>
<!-- Node8 -->
<g id="Node000008" class="node">
<title>Node8</title>
<g id="a_Node000008"><a xlink:href="classCircularLinkedList.html#a3248c1de21470e7899c294ad7eeaa57a" target="_top" xlink:title="Destructor.">
<polygon fill="white" stroke="#666666" points="117,-457 0,-457 0,-427 117,-427 117,-457"/>
<text text-anchor="start" x="8" y="-445" font-family="Helvetica,sans-Serif" font-size="10.00">CircularLinkedList</text>
<text text-anchor="middle" x="58.5" y="-434" font-family="Helvetica,sans-Serif" font-size="10.00">::~CircularLinkedList</text>
</a>
</g>
</g>
<!-- Node4&#45;&gt;Node8 -->
<g id="edge7_Node000004_Node000008" class="edge">
<title>Node4&#45;&gt;Node8</title>
<g id="a_edge7_Node000004_Node000008"><a xlink:title=" ">
<path fill="none" stroke="#63b8ff" d="M145.81,-448.46C136.36,-447.75 126.63,-447.02 117.25,-446.32"/>
<polygon fill="#63b8ff" stroke="#63b8ff" points="145.68,-451.96 155.91,-449.21 146.2,-444.98 145.68,-451.96"/>
</a>
</g>
</g>
<!-- Node16&#45;&gt;Node4 -->
<g id="edge16_Node000016_Node000004" class="edge">
<title>Node16&#45;&gt;Node4</title>
<g id="a_edge16_Node000016_Node000004"><a xlink:title=" ">
<path fill="none" stroke="#63b8ff" d="M306.61,-408.49C292.46,-415.04 276.56,-422.37 262,-429 255.61,-431.91 248.77,-435 242.2,-437.95"/>
<polygon fill="#63b8ff" stroke="#63b8ff" points="308.49,-411.47 316.09,-404.09 305.55,-405.12 308.49,-411.47"/>
</a>
</g>
</g>
<!-- Node17&#45;&gt;Node5 -->
<g id="edge18_Node000017_Node000005" class="edge">
<title>Node17&#45;&gt;Node5</title>
<g id="a_edge18_Node000017_Node000005"><a xlink:title=" ">
<path fill="none" stroke="#63b8ff" d="M287.93,-349.8C235.21,-357.46 159.67,-368.44 110.11,-375.64"/>
<polygon fill="#63b8ff" stroke="#63b8ff" points="288.44,-353.27 297.83,-348.36 287.43,-346.34 288.44,-353.27"/>
</a>
</g>
</g>
<!-- Node17&#45;&gt;Node7 -->
<g id="edge21_Node000017_Node000007" class="edge">
<title>Node17&#45;&gt;Node7</title>
<g id="a_edge21_Node000017_Node000007"><a xlink:title=" ">
<path fill="none" stroke="#63b8ff" d="M312.82,-320.98C291.54,-309.22 267.6,-296.4 262,-295 211.24,-282.34 151.49,-291.34 110.11,-301.18"/>
<polygon fill="#63b8ff" stroke="#63b8ff" points="311.28,-324.12 321.72,-325.91 314.67,-318 311.28,-324.12"/>
</a>
</g>
</g>
<!-- Node17&#45;&gt;Node12 -->
<g id="edge20_Node000017_Node000012" class="edge">
<title>Node17&#45;&gt;Node12</title>
<g id="a_edge20_Node000017_Node000012"><a xlink:title=" ">
<path fill="none" stroke="#63b8ff" d="M308.89,-320.5C305.05,-317.86 301.34,-315.01 298,-312 277.67,-293.66 282.56,-280.09 262,-262 256.05,-256.76 249,-252.11 241.99,-248.14"/>
<polygon fill="#63b8ff" stroke="#63b8ff" points="307.12,-323.52 317.44,-325.94 310.88,-317.62 307.12,-323.52"/>
</a>
</g>
</g>
<!-- Node18 -->
<g id="Node000018" class="node">
<title>Node18</title>
<g id="a_Node000018"><a xlink:href="classCircularLinkedList.html#a849dcf92d742144b5f326a8a1df874e5" target="_top" xlink:title="Copy constructor.">
<polygon fill="white" stroke="#666666" points="262,-420 153,-420 153,-390 262,-390 262,-420"/>
<text text-anchor="start" x="161" y="-408" font-family="Helvetica,sans-Serif" font-size="10.00">CircularLinkedList</text>
<text text-anchor="middle" x="207.5" y="-397" font-family="Helvetica,sans-Serif" font-size="10.00">::CircularLinkedList</text>
</a>
</g>
</g>
<!-- Node17&#45;&gt;Node18 -->
<g id="edge19_Node000017_Node000018" class="edge">
<title>Node17&#45;&gt;Node18</title>
<g id="a_edge19_Node000017_Node000018"><a xlink:title=" ">
<path fill="none" stroke="#63b8ff" d="M306.45,-360.22C285.68,-369.72 261,-381 241.6,-389.87"/>
<polygon fill="#63b8ff" stroke="#63b8ff" points="308.04,-363.35 315.68,-356.01 305.13,-356.98 308.04,-363.35"/>
</a>
</g>
</g>
<!-- Node19 -->
<g id="Node000019" class="node">
<title>Node19</title>
<g id="a_Node000019"><a xlink:href="classCircularLinkedList.html#a1df3d9dbee88370b95041f6557b5dd3f" target="_top" xlink:title="Add element to the beginning.">
<polygon fill="white" stroke="#666666" points="259,-334 156,-334 156,-304 259,-304 259,-334"/>
<text text-anchor="start" x="164" y="-322" font-family="Helvetica,sans-Serif" font-size="10.00">CircularLinkedList</text>
<text text-anchor="middle" x="207.5" y="-311" font-family="Helvetica,sans-Serif" font-size="10.00">::push_front</text>
</a>
</g>
</g>
<!-- Node17&#45;&gt;Node19 -->
<g id="edge22_Node000017_Node000019" class="edge">
<title>Node17&#45;&gt;Node19</title>
<g id="a_edge22_Node000017_Node000019"><a xlink:title=" ">
<path fill="none" stroke="#63b8ff" d="M287.81,-331.46C278.35,-329.98 268.66,-328.45 259.44,-327"/>
<polygon fill="#63b8ff" stroke="#63b8ff" points="287.53,-334.96 297.96,-333.06 288.62,-328.05 287.53,-334.96"/>
</a>
</g>
</g>
</g>
</svg>

<g id="navigator" transform="translate(0 0)" fill="#404254">
  <rect fill="#f2f5e9" fill-opacity="0.5" stroke="#606060" stroke-width=".5" x="0" y="0" width="60" height="60"/>
  <use id="zoomplus" xlink:href="#zoomPlus" x="17" y="9" onmousedown="handleZoom(evt,'in')"/>
  <use id="zoomminus" xlink:href="#zoomMin" x="42" y="9" onmousedown="handleZoom(evt,'out')"/>
  <use id="reset" xlink:href="#resetDef" x="30" y="36" onmousedown="handleReset()"/>
   <use id="arrowup" xlink:href="#arrowUp" x="0" y="0" onmousedown="handlePan(0,-1)"/>
  <use id="arrowright" xlink:href="#arrowRight" x="0" y="0" onmousedown="handlePan(1,0)"/>
  <use id="arrowdown" xlink:href="#arrowDown" x="0" y="0" onmousedown="handlePan(0,1)"/>
  <use id="arrowleft" xlink:href="#arrowLeft" x="0" y="0" onmousedown="handlePan(-1,0)"/>
</g>
<svg viewBox="0 0 15 15" width="100%" height="30px" preserveAspectRatio="xMaxYMin meet">
 <g id="arrow_out" transform="scale(0.3 0.3)">
  <a xlink:href="classCircularLinkedList_a8436a0177cb8927954f142c8d2ccfd93_icgraph_org.svg" target="_base">
   <rect id="button" ry="5" rx="5" y="6" x="6" height="38" width="38"
        fill="#f2f5e9" fill-opacity="0.5" stroke="#606060" stroke-width="1.0"/>
   <path id="arrow"
     d="M 11.500037,31.436501 C 11.940474,20.09759 22.043105,11.32322 32.158766,21.979434 L 37.068811,17.246167 C 37.068811,17.246167 37.088388,32 37.088388,32 L 22.160133,31.978069 C 22.160133,31.978069 26.997745,27.140456 26.997745,27.140456 C 18.528582,18.264221 13.291696,25.230495 11.500037,31.436501 z"
     style="fill:#404040;"/>
  </a>
 </g>
</svg>

<style type='text/css'>
<![CDATA[
[data-mouse-over-selected='false'] { opacity: 0.7; }
[data-mouse-over-selected='true']  { opacity: 1.0; }
]]>
</style>
<script type="application/ecmascript"><![CDATA[
document.addEventListener('DOMContentLoaded', (event) => {
  highlightEdges();
  highlightAdjacentNodes();
});
]]></script>
</svg>
