<?xml version="1.0" encoding="UTF-8" standalone="no"?>
<!DOCTYPE svg PUBLIC "-//W3C//DTD SVG 1.1//EN"
 "http://www.w3.org/Graphics/SVG/1.1/DTD/svg11.dtd">
<!-- Generated by graphviz version 2.43.0 (0)
 -->
<!-- Title: CircularLinkedList&lt; T &gt;::Node Pages: 1 -->
<svg width="154pt" height="126pt"
 viewBox="0.00 0.00 154.00 126.00" xmlns="http://www.w3.org/2000/svg" xmlns:xlink="http://www.w3.org/1999/xlink">
<g id="graph0" class="graph" transform="scale(1 1) rotate(0) translate(4 122)">
<title>CircularLinkedList&lt; T &gt;::Node</title>
<!-- Node1 -->
<g id="Node000001" class="node">
<title>Node1</title>
<g id="a_Node000001"><a xlink:title="Internal node structure of the list.">
<polygon fill="#999999" stroke="#666666" points="103,-30 0,-30 0,0 103,0 103,-30"/>
<text text-anchor="start" x="8" y="-18" font-family="Helvetica,sans-Serif" font-size="10.00">CircularLinkedList</text>
<text text-anchor="middle" x="51.5" y="-7" font-family="Helvetica,sans-Serif" font-size="10.00">&lt; T &gt;::Node</text>
</a>
</g>
</g>
<!-- Node2 -->
<g id="Node000002" class="node">
<title>Node2</title>
<g id="a_Node000002"><a xlink:href="structCircularLinkedList_1_1Node.html" target="_top" xlink:title="Internal node structure of the list.">
<polygon fill="white" stroke="#666666" points="103,-118 0,-118 0,-88 103,-88 103,-118"/>
<text text-anchor="start" x="8" y="-106" font-family="Helvetica,sans-Serif" font-size="10.00">CircularLinkedList</text>
<text text-anchor="middle" x="51.5" y="-95" font-family="Helvetica,sans-Serif" font-size="10.00">&lt; T &gt;::Node</text>
</a>
</g>
</g>
<!-- Node2&#45;&gt;Node1 -->
<g id="edge1_Node000001_Node000002" class="edge">
<title>Node2&#45;&gt;Node1</title>
<g id="a_edge1_Node000001_Node000002"><a xlink:title=" ">
<path fill="none" stroke="#9a32cd" stroke-dasharray="5,2" d="M51.5,-77.49C51.5,-62.2 51.5,-43.05 51.5,-30.22"/>
<polygon fill="#9a32cd" stroke="#9a32cd" points="48,-77.8 51.5,-87.8 55,-77.8 48,-77.8"/>
</a>
</g>
<text text-anchor="middle" x="64" y="-62" font-family="Helvetica,sans-Serif" font-size="10.00" fill="grey"> next</text>
<text text-anchor="middle" x="64" y="-51" font-family="Helvetica,sans-Serif" font-size="10.00" fill="grey">prev</text>
</g>
<!-- Node2&#45;&gt;Node2 -->
<g id="edge2_Node000002_Node000002" class="edge">
<title>Node2&#45;&gt;Node2</title>
<g id="a_edge2_Node000002_Node000002"><a xlink:title=" ">
<path fill="none" stroke="#9a32cd" stroke-dasharray="5,2" d="M112.96,-109.31C117.92,-107.94 121,-105.84 121,-103 121,-98.57 113.5,-95.93 103.03,-95.06"/>
<polygon fill="#9a32cd" stroke="#9a32cd" points="112.33,-105.87 103.03,-110.94 113.46,-112.78 112.33,-105.87"/>
</a>
</g>
<text text-anchor="middle" x="133.5" y="-106" font-family="Helvetica,sans-Serif" font-size="10.00" fill="grey"> next</text>
<text text-anchor="middle" x="133.5" y="-95" font-family="Helvetica,sans-Serif" font-size="10.00" fill="grey">prev</text>
</g>
</g>
</svg>
